<?xml version="1.0" encoding="UTF-8"?>
<svg id="Layer_1" data-name="Layer 1" xmlns="http://www.w3.org/2000/svg" viewBox="0 0 824.1884557 733.2400464">
  <path id="Full_State" data-name="Full State" d="M362.1568615.0251192v195.000001l170.0600281.4400024-.0570068,109.5570068c8.9591607-1.710457,10.2210506-12.0199105,19.001863-15.5137328,1.2633388-5.2865903,7.18029-6.8475117,11.9451585-5.5173036.7051182-2.1709904,1.2719391-5.7404897,3.7870522-6.1888489.6400108-.9801575-.002018-2.7751404,1.1799889-4.3581482,1.4550171-1.9490051,5.4520264-2.3909912,6.8259888-3.6789856,3.8549805-3.6140137,2.7620239-2.0589905,6.2620239-4.2290039,4.3752005-10.1741128,12.3413577-5.1591537,10.9890137-18.5149994,17.8247639-.7771806,5.474642-5.5526305,23.9980469,7.0039978-.9710083-4.9600067.8540039-4.4279938,2.9359741-6.5690002,1.6316938-2.6607463,2.1441523-3.2988831,4.92635-3.570364.9240537-4.5270174-.5847376-5.2298452,5.1340573-7.3620851,3.4529044-7.0486487,10.0516277-11.2783933,12.7806159-19.2275635-.1532137-4.973702,2.4200613-6.8450355,7.1719162-5.2059999l1.0650024,10.9429932c5.9769897-2.8789978,5.1849976,2.7519989,7.2139893,4.7720032.382019.3800049,8.9849854,4.9349976,9.5089722,5.0599976,14.0948582-3.3135738,8.5100846,6.0485175,21.8059582,1.5509869,13.3131485,5.6151248,5.2570397-2.5358862,13.4621082-4.4029919v-1.9750061c-4.0479736-.1750031-2.9769897-3.8130035-3.0009766-7.0160065l6.9910278.5090027c-5.6719971-6.4559937-3.5360107-10.0780029,4.4329834-6.4290009,1.0089722-.1119995.8779907-4.7910004,4.5759888-2.0619965l.5230103-3.0559998c5.0880127-.5090027,9.5089722,2.076004,14.0009766,3.9609985,1.5800171-1.0509949,1.4199829-3.0679932,2.4459839-4.451004,3.3320978-3.4609772,3.5713145-1.7149029,3.4394027-6.4880646.5076188-.717929,5.3016252-2.2229339,6.9396257-3.1299316,1.1989746-.6629944,2.2930298-2.4810028,3.2689819-2.6759949,7.7416712.7987458,17.7998917,4.0939875,22.9076708,10.8023289,11.1124884,16.9074767,7.488638,4.6052605,15.3883497,7.9626553l1.5949707-2.9389954c2.09198-.576004,4.8790283,7.0619965,8.0599976.0700073,4.6049805,1.2769928,9.5219727.6040039,10.3909912,6.470993.802002,5.4190063-.3610229,6.6389923-5.4569702,7.470993-4.5959927.2126939,1.6507292,3.1865164.5059814,5.9909973,3.1970215.8200073.835022-3.154007,4.3699951-1.8840027,5.3300171,1.9160004-.3779907,6.9720001.6240234,7.8769989,1.53302-.4069977,3.3289795.6690063,4.5410156.5970001,2.6209717-.1549988,6.822998-4.7400055,7.0219727,1.4170074l-3.507019,2.1069946-.0629883,9.8829956c6.0288677-1.4632935,7.7703998,4.1005076,9.0158243,8.5155572-2.6162986,3.7538054-2.2114843,7.8118044-1.9368448,12.4094459,1.6170044.4960022,5.2880249.1210022,4.9370117,2.57901-.3699951,2.5899963-2.2290039,1.8439941-3.072998,3.1530151-4.4157794,8.2538316-3.7734029,16.7562739-9.2392044,24.5404071-1.6337814,4.8846112-1.7457809,11.1696149-6.1987839,14.7916242l-85.4960327-66.9869995c-.6667834,8.1663165-1.4802552,16.3534591.0146195,24.4638944-1.8291217,6.9731799-13.3034598,14.0173303-8.9813498,22.0029601-.1812799,2.145145-3.5152643,4.5551487-3.6572931,6.0011631-.2369995,2.4129944,3.1610107,8.5010071,2.1760254,10.5100098-4.1780686,4.6318619-10.8893578,10.536322-15.0988192,14.9731401-10.7631803,11.5448653-15.3231779,25.7128646-28.5001798,35.4998519-2.4819946,1.8439941-8.6669922,5.9530029-9.4509888,1.5280151-10.2184209,8.0518587-14.4312958,23.1671063-22.0159912,34.0200195-3.4862666-2.9058299-17.3542245-15.661959-21.4829712-17.0030212-.4569702,2.5350037-1.7670288,7.4150085-3.0859985,9.4190063-1.309021,1.9890137-4.4260254,1.5499878-5.4320068,3.5679932-.4683515,4.3381523-2.0787354,7.4002634-4.2701646,10.7305856-.869789,2.9834342-1.0978163,15.3664298-2.3277968,16.1754203-.7349854.4840088-2.9310303-.1719971-4.242981.2369995-3.0570068.95401-6.0479736,13.177002-7.4559937,16.5589905-1.4260254,3.427002-4.7290039,7.4590149-5.7310181,10.2690125-1.92462,6.5262748-3.2224812,15.3979454-10.9487321,18.0509963-4.3937211,16.7395178-25.9036461-1.324805-36.8662703-1.9339919-12.005138-22.1134113-4.0768351-17.6795721-27.6349792-28.0740051-3.8011805,8.5366169.9948481,13.9384177-6.8941776,20.6842324,1.518301,10.1984728,1.4481342,10.3651616-3.3239024,18.6065614-3.432776,20.5660555-13.2024459,1.2379154-13.9598752,30.5474135-2.8560108,1.8637886-7.1170277,4.2327461-9.5280079,6.4637642-2.6468927,2.4005565-6.190218,8.7921653-10.2521169,9.8078872-.3368724.4690903.911144,2.2090806.530132,3.8931016-1.2179871,5.3790283-6.5620117,6.6359863-2.7510071,12.3319702-4.9549866,7.8530273-6.3710022,17.4920044-12.3080139,24.6859741-10.7122415,13.7694939-34.1779667,26.4684865-37.0237093,43.9764756-9.2342149,7.5347391-2.3267603,9.5344998-8.4523367,16.5722188-2.0689369,1.9263423-3.9079567.5713618-2.8499428,4.7163203,4.5769996,13.6268153,25.097157,6.4848798-.6842236,22.725207-4.6477772,5.3457769-1.1997791,14.4387944-9.5617786,20.4377568-7.6713532,3.7226257-14.3816608,8.8990605-21.6100218,13.397978-9.0619752-.6959517-1.5459535-13.9709761-11.6459596-11.673979-3.5409851.8049927-15.8580017,11.0239868-20.3789978,13.6400146-6.0280151,3.4879761-12.6960144,5.8070068-18.8309937,9.0819702-3.2693123-2.730555-1.5792167-5.5643747-7.4444887-7.4232687-2.3455198-1.8467508-3.6165159-5.0807596-7.0315244-4.4747415.6820068,2.7459717-3.0910034,5.0889893-2.8380127,7.3439941.3039856,2.7189941,5.730011,5.7869873,4.7669983,9.0319824-22.4292002,20.8841908-33.7006942,3.8993327-65.434021,23.315979-8.5070038-5.7440186-16.2579956-12.8699951-23.0019989-20.6599731-6.9556222,5.0715907-4.7155118,5.49728-8.5150363,11.4568137-1.9829648,1.737156-4.7049649,1.1572-6.9449704,2.0561868-1.5359955.6160278-2.9340057,2.5059814-4.8200073,3.2230225-5.4940033,2.0880127-1.7120056,1.2310181-4.1880035,3.7529907-.3569946.3640137-8.2409973,5.1500244-8.7339935,5.2819824-6.4505008-.2106223-16.1829566,2.6987318-22.3200089.7250442-1.5570052-.8100661-3.1900008-5.1650466-5.4270004-6.5740432-7.5380516-1.6935438-5.4988102-4.1267758-8.1654561-9.0286423-3.1545513-2.1523269-10.4845378.3806931-14.3655498-2.4402908-1.6670074-1.2119751-3.387001-8.6380005-6.2779999-11.2160034-14.8014371-6.8924794-4.0283884-11.4404591-8.6838422-21.5994153-1.1481586-1.7935901-6.5321536-3.1555896-8.111156-5.1106067-5.5090027-6.8200073,4.1090012-7.9660034,8.0410004-12.0529785l-5.6539993-5.4180298-1.6279984.0449829c-3.5680008,4.0750122-5.7180023.3959961-8.336998.0930176-4.962204.7261587-4.9732623,2.556907-6.9889984-3.2670288l-9.4209976.6359863c-1.8740005-3.0449829-2.5339966-4.9160156.0390015-7.5830078-4.9029999.5120239-5.6539993-5.6790161-8.0910034-8.9559937-.1780014-.2399902-4.163002,2.026001-5.8239975.8619995-1.2918945-6.0883642-2.3495033-6.6335502-8.1085212-7.3881459-1.467479-.7408214-1.6324799-2.9788585-2.1694787-3.3308483-.9539986-.6259766-3.4179993.2769775-4.3779984-1.1229858-.5507168-4.9238506-1.4956084-11.2652268-5.239494-14.5526873-.0435032-.7432722,1.539497-2.0682844,1.7104946-3.1802839.3549995-2.3079834-5.875-6.7139893-7.4759979-8.2849731-1.9339981-1.8969727-.7200012-4.0440063-5.4259987-3.0490112,1.3959999-4.1859741-1.9399986-5.4119873-2.7840004-7.7069702-1.6759987-4.5570068,1.3349991-11.0679932-5.6870003-12.3619995-.9780006,3.4760132-2.493,2.6290283-3.507-.4569702-1.3549995-4.1220093-.9470005-4.1370239-4.901001-6.9619751,1.3190002-3.7080078,6.2980003-4.2329712,5.8150005-8.8839722-.5890007-2.0560303-6.1620007-2.7069702-7.8290005-5.2349854-2.3409996-3.5499878-2.7010002-10.0510254-4.6569996-13.3430176-1.3109999-2.2059937-3.8979998-2.6890259-4.9180002-4.0819702-1.1759996-1.6069946-1.073-5.6040039-2.4910002-6.5089722-1.2049999-.7680054-3.1560001-.0750122-4.5599999-1.4400024-1.3789999-1.3400269-4.3449998-11.1950073-3.4779999-12.0200195l5.9300001-.0750122c.0799999-3.4030151,2.9980001-5.7150269,1.8839998-9.2120056-.5279999-1.6579895-2.5190001-2.1730042-1.6929998-5.0499878.9039998-3.1480103,5.7539997-1.2909851,5.868-6.2269897.0410004-1.7839966-1.0480003-3.2690125-1.0489998-4.9389954-.0010004-1.7059937,1.1730003-3.2309875,1.073-4.9490051-.1429996-2.4639893-2.875-4.7120056-3.0819998-8.071991,1.3124956-5.4211454-.7986042-9.9239347,1.0749998-15.4779968,2.6610003-.4410095,3.5679998,3.1929932,5.6660004,3.822998,9.3887768,2.8244888,21.2373515-9.3306578,30.8309166-5.9469744,1.2730835-.0640119,6.6720855-.9440168,7.5170829-1.3580183,5.0240021-2.4549866,5.9199982-22.9979858,7.4780006-28.5230103,4.4009972-7.4100037,10.5959969-2.1860046,15.9790001-2.9729919,7.2539978-1.0610046,1.1800003-12.9519958,1.0289993-17.5239868-.1620026-4.8800049,1.6389999-10.4689941-1.038002-15.4639893-1.4960022-2.7909851-4.9670029-2.8649902-3.2919998-8.3649902,1.4970016-4.9179993,10.5839996-6.4240112,12.2829971-9.7109985,2.5510025-4.9349976-.4950027-8.5469971,1.7720032-13.2369995,8.681048-9.894383,2.9894826-13.8887783,14.8258915-20.1667726,2.5841122-3.2172301,1.6671124-9.7022155,9.277113-7.3802245,3.5449982,1.0809937,4.5289993,6.5969849,5.6179962,7.4089966,7.3436119-2.4267556,10.8050194,8.170369,13.0582472,13.9793243.5547441,4.866684-4.0582472,5.3106842-4.0592467,7.9376679,0,3.7749939,4.9379959,4.3609924,7.5199966,1.4670105,2.753006-3.0840149,2.621994-11.5539856,7.2140045-12.8580017,3.0850067-.8760071,6.3430023,4.17099,9.3130035,4.8919983-3.2889156-5.814467-1.9268025-12.1729566-.0980072-18.3280029-5.1730042-4.3120117-8.9660034-7.053009-7.8999939-14.6740112,18.3248358,2.36387,9.764438-11.5717418,10.1182329-20.3123082.3697737-1.3017055,2.4597701-2.4367153,3.3437728-3.7277004,2.1459961-3.131012,2.5679932-6.6000061,7.5139923-6.9989929-3.7380066-13.9679871,11.1459961-11.1119995,20.0240021-8.9549866,3.0995031-14.8865431-.2988155-14.9614577,14.0653328-23.4550755,2.1846825-1.8339259,3.6006828-5.6459071,7.6476799-6.4189174,3.0139923-.5759888,7.9360046,4.1419983,8.8419952,6.8190002.9329987,2.756012-.2319946,6.3919983,3.9689941,7.0650024,7.6540534,1.1253217,15.2557304-11.9827233,24.5229461-8.4271335,4.5780412-8.5086104,4.4023445-9.4316666,14.5258195-12.5187675,7.9631865-13.5519634,22.6189238-26.1375566,34.9278051-36.0726561,15.0718303,2.6823522,2.0784834-15.5766358,14.5198514-18.5116138.5195691-4.721828-10.2744067-8.4698291-3.5644153-15.5328327,8.0762709-4.4164576,3.2065708-7.3126248,5.0279275-13.9764567.8950766-1.7165364,4.8710593-2.5735463,5.4410666-4.628539.7600098-2.7429962-4.2349854-4.8549957-2.4549866-8.3370056,2.5109863-4.9109955,7.2290039-1.6940002,7.5289917-2.0119934-1.6999252-6.80618.6388841-9.1185771,4.0100807-14.4935958,1.2145278-5.7292171,1.0048296-13.2974907.1317151-18.7853335.6262095-3.0060667,4.7102244-4.9780668,4.8752024-8.2700666-2.451733-8.8307328,4.6343092-15.3717524,7.4614582-24.4761026,5.6263628-10.0979355,6.1823382-2.4695735,9.5455758-17.5384624.0829624-.7704386-.7930447-11.8134341-.9760281-12.7954325-.2179871-1.1679993-3.4869995-.4480019-3.0849915-4.1199989,2.7506455-4.9147732,3.1155442-4.9144298,3.2368925-10.8233581.3961031-1.8316407,3.0061189-4.6686387,2.6931002-6.0686402-3.8342001-3.1320501-4.0487947-9.8409842-6.017353-14.0023819-1.9346429-3.4556183-7.409649-5.3686184-5.7226373-10.9516186.2839966-.9399996,7.5669861-8.2159996,8.5209961-8.5089998,3.0610046-.938,5.4620056,1.0650001,7.6130066.6830001,3.0650024-.546,7.1679993-4.2199998,10.7149963-3.849l-.0002136-.0011392Z" fill="#b3b3b3"/>
  <path id="Hancock" d="M359.1568615,4.0251192c-2.8340149-.1860001-6.144989,2.8699999-8.5480042,3.0159998-1.9179993.1160002-3.6579895-1.4960003-5.7659912-.901-1.1960144.3379998-6.6960144,6.0439997-6.7009888,7.3610001-.0130005,3.0150003,5.071991,6.4859991,6.4410095,9.5979986,1.3359985,3.0359993,4.9660034,13.6590004,4.5490112,16.3919983-.2640076,1.7299995-1.5050049,2.8779984-1.7829895,4.2259979-.5100098,2.4780006.3150024,4.9920006-1.1919861,7.302002l13-.9939995V4.0251192h-.000061Z" fill="#b3b3b3"/>
  <path id="Brooke" d="M359.1568615,54.0251201h-14c.4790039,1.3639984,1.7149963,1.7869987,2.0029907,3.4970016.3330078,1.9749985,1.2179871,12.3330002.9760132,13.9659958-.1679993,1.1320038-3.1369934,11.0339966-3.4949951,11.5179977-1.4299927,1.9329987-5.0599976,1.3190002-6.256012,5.7409973-.4100037,1.5169983-.0490112,3.1500015-.4219971,4.5839996-.45401,1.7460022-2.0780029,2.7770004-1.8039856,4.6900024,8.2390137-.8649979,15.20401.9660034,22.9970093,3.0029984v-47l.0009766.0010071Z" fill="#b3b3b3"/>
  <path id="Ohio" d="M359.1568615,104.0251201c-3.9060059.1110001-7.9760132-2.4749985-11.5589905-2.9410019-4.651001-.6039963-9.6010132.5009995-14.3840027-1.0159988-.3410034,2.5419998-2.6279907,5.2740021-2.881012,7.6940002-.2260132,2.1600037,1.2189941,3.7720032.6549988,6.5449982-.5409851,2.6610031-3.0559998,5.237999-4.6610107,7.3359985l.8309937,7.3809967,31.9989929,3.0010071v-28h.0000305Z" fill="#b3b3b3"/>
  <path id="Marshall" d="M359.1568615,135.0251201l-32.8909912-2.8910065c-1.8739929,3.1679993-.4719849,7.0879974-1.3099976,10.1909943-.4590149,1.6999969-3.3240051,4.0970001-3.5639954,6.3390045-.2290039,2.1360016,1.6759949,6.5339966.7619934,9.3600006-3.2860107.7559967-5.6409912-3.9179993-7.9819946-.503006,2.1600037,2.3329926,2.5660095,6.8359985,2.0220032,9.8589935-.1870117,1.0379944-4.4030151,2.1490021-4.8659973,2.8049927-1.1409912,1.6159973.6560059,5.3560028.553009,7.1840057-.3110046,5.5570068-7.0190125,6.529007-7.6140137,9.2910004l5.3900146,8.3650055h48l1.5-1.5v-58.5l-.0000305.0000153Z" fill="#b3b3b3"/>
  <path id="Wetzel" d="M379.1568615,213.0201152c-1.8420105-3.3209991-.1830139-13.529007-4.67099-14.822998l-63.7120056-.2220001c-1.2380066.1840057-.8859863,3.1349945-1.8330078,3.8480072-.6279907.4730072-2.230011.2899933-3.3410034,1.1239929-3.5010071,2.6269989,1.1239929,15.9869995-6.9869995,17.0140076-2.0960083.2649994-4.7130127-.470993-6.4519958.5619965,4.6940002,5.4660034,7.4899902,1.6790009,11.5140076,1.5820007,4.1329956-.1000061,4.1740112,4.3410034,6.526001,6.3800049,1.7999878,1.5610046,5.5450134,2.0509949,7.0310059,3.9920044.8160095,1.0659943.6390076,2.5509949,1.1870117,3.2870026.5039978.677002,3.0369873,1.6360016,4.2879944,3.2180023,1.7879944,2.2619934,1.7319946,4.8029938,4.5109863,6.4850006,6.3559875,3.845993,16.1759949,6.9759979,23.2409973,8.7590027,2.355011.5939941,3.6140137,3.0740051,6.1879883,2.8739929,3.1480103-.2449951,2.0249939-3.1820068,3.0109863-5.0769958.7510071-1.4450073,2.5130005-1.4730072,3.2409973-2.2510071.348999-.371994,2.9930115-5.9199982,3.0480042-6.3930054.3200073-2.720993-3.6700134-7.651001-3.6830139-10.8379974-.006012-1.4819946,1.9450073-7.7030029,2.821991-8.871994.7510071-1.0019989,2.6749878-.6450043,4.1289978-2.0829926,3.1809998-3.1470032.6960144-10.2550049,9.9429932-8.5650024l-.000946-.0010223Z" fill="#b3b3b3"/>
  <path id="Monongalia" d="M481.6568615,198.0251201h-101.5l2.1650085,16.8309937c2.4020081.3090057,4.2749939,2.8170013,6.3439941,3.1600037,9.0660095,1.5,19.3450012.2859955,28.4639893,1.5359955,4.2969971,1.7180023,18.4649963,13.6690063,21.4979858,17.5099945.9060059,1.147995,1.1069946,3.1289978,1.7340088,3.753006.8370056.8329926,3.0320129.6620026,3.5969849,1.4210052.4930115.6629944.0929871,2.223999,1.1679993,3.3000031.802002.802002,2.803009,1.1369934,3.9909973,2.029007,3.927002,2.9499969,7.1130066,5.7310028,12.0339966,7.4600067l-.5759888-8.0440063,18.1409912-29.8970032c.8680115-2.3910065.1359863-4.9299927.6380005-7.3619995.5270081-2.5549927,3.2799988-6.5879974,3.6679993-9.3829956.1319885-.9530029-.7210083-2.1410065-1.3649902-2.3139954l-.0009766-.0000153Z" fill="#b3b3b3"/>
  <path id="Preston" d="M530.156831,198.0251201h-44c.7260132,4.4160004-2.7770081,8.0619965-3.7850037,11.7149963-.8699951,3.151001-.6419983,6.3769989-2.0140076,9.9859924-2.7850037,7.3269958-16.098999,23.4060059-17.0480042,29.0149994-.2669983,1.5809937.8559875,3.7070007.8989868,5.7380066.0889893,4.1949921-1.1960144,30.4869843.0429993,31.4550018.3569946.2789917,1.9060059.0880127,2.8269958.6260071,5.3349915,3.1199951,3.7019958,10.0090027,4.1380005,10.4049988.428009.3890076,7.6539917,1.9970093,8.9410095,1.6340027,5.8460083-1.651001,11.3569946-6.2990112,17.4989929-7.4869995l31.493988,11.9129944,1.0059814-105h.000061Z" fill="#b3b3b3"/>
  <path id="Morgan" d="M760.0668652,219.9551128c-.4019775-3.3390045,10.2230225-3.9279938,7.6439819-7.9420013-.7559814-1.177002-5.0570068-6.0370026-6.1970215-6.8430023-2.3319702-1.6499939-12.434021-5.0050049-14.9000244-4.8179932-1.15802.0879974-2.2529907,2.5980072-3.4699707,3.1809998-1.2990112.6210022-3.4069824.2429962-3.8480225.6309967-.3170166.2779999-.1690063,1.9299927-.6749878,2.7810059-.9580078,1.6119995-2.90802,2.5619965-3.9299927,4.1130066-1.1489868,1.7429962-1.5980225,5.4869995-3.1430054,5.9170074l-12.9249878-4.0310059-1.302002.2570038c-1.5040283,2.4900055-3.3770142,3.826004-4.65802,6.8099976l-6.5040283-2.9790039,4.9589844,6.3930054c-2.6920166,4.6049957-5.3120117,1.1439972-8.9539795-.3990021-1.473999,1.4859924,10.2189941,9.5919952,3.5640259,9.9100037-.7399902.0350037-1.664978-.7910004-2.6090088-.4019928-1.3250122.5449982-3.8670044,3.951004-2.8779907,5.4080048,6.0349731,3.7599945,13.1939697,5.6000061,19.2319946,9.2700043,6.4990234,3.9499969,12.0390015,10.1290131,18.6760254,13.8170013l11.7860107-39.7259979c3.2340088-7.0050049,9.2559814-.2350006,10.1329956-1.345993l-.0009766-.0020447Z" fill="#b3b3b3"/>
  <path id="Mineral" d="M648.373872,225.80312c-.7550049-.7449951-1.2769775-3.3710022-2.0150146-4.4819946l-1.1950073-7.2929993.0360107,6.3549957c-4.4660034,2.1569977-5.2160034,5.1340027-3.0369873,9.6369934-5.0529785-.026001-5.7119751.9980011-8.4199829,5.0899963-3.0720215,4.6410065-4.1090088,3.3800049-5.6749878,5.3249969-1.1829834,1.4700012-.6300049,3.727005-1.8189697,5.1829987-1.1129761,1.3630066-2.9310303,1.0019989-3.8259888,1.6719971-2.1270142,1.5930023-3.8969727,7.0339966-4.2800293,9.7260132-1.9630127,1.9320068-11.4299927-6.8869934-13.8880005-7.5119934-1.7249756-.4380035-6.6290283,1.3289948-9.0980225.5169983,1.6859741,7.8330078-5.7550049,9.0400085-9.0269775,13.4760132-5.0239868,6.8110046-4.1430054,3.0020142-7.7219849,5.7890015-.5310059.4140015-.6309814,1.7640076-1.8460083,2.6149902-2.5969849,1.8190002-8.848999,2.8540039-5.9639893,7.1879883.6740112,1.0119934,1.9349976.9049988,3.0139771.9830017,4.3449707.3129883,11.7080078.3190002,15.5880127,1.4119873,6.7410278,1.8980103,16.882019,11.1380005,23.6400146,14.4100037,2.9119873.8930054,3.1209717-2.2890015,4.7919922-3.8940125,4.414978-4.2399902,4.6090088-5.4200134,8.0999756-9.8999939,4.3900146-5.6329956,7.9459839-4.1759949,9.9310303-6.0690002,7.440979-7.0979919,5.4260254-18.0639954,16.1820068-25.848999,4.8939819-3.5410004,2.6929932-2.6069946,5.8640137-7.1069946,2.1500244-3.052002,6.9329834-4.977005,6.4290161-9.0200043-2.8300171-.6560059-5.9249878-2.3370056-8.2630005-4.003006-.9099731-.647995-.9979858-2.0460052-1.7020264-2.496994-1.5200195-.9750061-4.5900269-.5610046-5.7979736-1.753006l-.0010986.0010223Z" fill="#b3b3b3"/>
  <path id="Marion" d="M440.8988354,244.2811168c-.7529907-.5540009-2.2309875-.2089996-3.2489929-1.2259979-.8510132-.8500061-1.3179932-3.1170044-2.4809875-4.5399933-3.29599-4.0319977-15.8410034-15.6849976-20.526001-16.473999-7.2160034-1.2160034-18.0010071.0890045-25.9490051-1.0509949-3.3110046-.4750061-8.6480103-4.3350067-12.0289917-5.6289978-3.8630066.3699951-2.644989,5.1959991-4.5899963,8.0829926-1.3330078,1.9779968-6.2839966,2.3099976-6.947998,7.1260071-.6239929,4.529007,4.0050049,9.1439972,4.0010071,11.9580078-.0020142,1.6139984-1.5769958,3.3159943-2.1350098,4.8500061-.3819885,1.0509949-1.4509888.9589996.1380005,2.173996l34.0409851,7.9600067c3.9230042,1.5669861,8.6260071,6.9339905,12.5270081,7.4899902,4.6199951.6579895,10.6199951-1.5570068,14.9159851-3.0280151,1.9309998,5.4349976,6.7109985,4.57901,10.9179993,1.9320068,1.9530029-1.2290039,2.0249939-2.7609863,3.3450012-3.9079895,2.0700073-1.7980042,6.6350098-3.769989,9.2799988-4.9799957-1.9920044-3.9420013-6.3510132-5.4160004-9.5490112-7.9700012-.9570007-.7649994-1.1149902-2.3269958-1.7099915-2.7649994v-.0020294Z" fill="#b3b3b3"/>
  <path id="Berkeley" d="M772.4098218,218.7521251c-.7379761-.6759949-.8950195-3.2929993-2.7449951-2.7250061-1.0419922.3200073-1.5440063,2.9160004-2.4730225,3.5319977-1.5050049.996994-3.8829956-.0149994-4.8709717.6340027-.4680176.3070068-1.0739746,3.3200073-2.6489868,3.7109985-2.2440186-1.0630035-3.7709961-3.3690033-6.5050049-2.8760071l-12.9970093,42.9389954c.9279785.071991,1.7800293.4129944,2.4899902,1.019989,8.8540039,7.5580139,18.0510254,14.5950012,26.9979858,22.0280151,2.7559814-3.8200073,6.0059814-7.5610046,8.315979-11.6730042,1.5040283-2.677002,3.3939819-8.8070068,4.6950073-10.3049927,1.5499878-1.7829895,3.9730225-1.4670105,5.4589844-2.5409851.4879761-.3529968,7.1339722-7.8650055,8.0219727-8.9779968,1.8120117-2.2740021,6.2839966-9.3600006,6.0839844-11.9940033.2080078-1.8159943-4.2589722-3.7579956-4.7860107-4.7389984-.6240234-1.1609955-.3549805-2.9360046-1.0449829-4.5-.8250122-1.871994-2.9210205-3.2259979-4.2349854-4.7579956,1.7969971-3.6340027,8.0159912-2.8249969,9.5490112-5.4920044-.5390015-5.8999939-5.1920166-7.447998-8.1279907-2.0800018l-6.4240112-1.9360046c-.1729736,4.9579926-4.4639893,7.7689972-5.0170288,1.0039978-.3629761-.3470001-6.4940186,2.7019958-9.7379761-.2700043l.000061-.0009918Z" fill="#b3b3b3"/>
  <path id="Tyler" d="M340.1528637,254.0331157c-4.6789856-1.8430023-11.6499939-3.8179932-15.5100098-6.9920044-2.4750061-2.0350037-2.7330017-4.4609985-4.4630127-6.5370026-1.3559875-1.6260071-3.6130066-2.326004-4.4769897-3.522995-4.177002-5.7899933-3.2720032-2.7940063-7.0979919-5.9019928-1.4899902-1.2100067-2.5090027-4.6560059-4.4660034-5.6069946-2.0570068-1-4.6640015,1.8880005-7.2749939,1.4120026-2.0820007-.3800049-4.1919861-3.1170044-6.3710022-3.7449951l-16.0360107,13.1860046c-1.7520142,4.3040009-9.0249939,8.1069946-10.2879944,12.2149963-.79599,2.5879974,3.3089905.9929962,4.2730103.4349976,1.0169983-.5879974.4890137-2.4029999,2.1789856-2.0359955l6.3640137,2.2630005c1.4880066,8.5340118,3.6380005,17.0970001,3.1700134,25.8279877,7.4400024,1.1289978,6.1499939-1.5159912,8.980011-5.526001,4.6719971-6.618988,7.197998,2.4840088,11.92099,3.6419983l-1.8930054,10.8800049c4.0759888-2.5490112,6.7690125-7.1239929,10.4830017-10.0109863,3.651001-2.8380127,9.1029968-5.019989,12.553009-8.446991,4.3869934-4.3590088,2.5190125-10.0800018,11.2449951-8.7550049l6.7090149-2.7799988-.0000305-.0000305Z" fill="#b3b3b3"/>
  <path id="Hampshire" d="M717.0338452,249.1461223c-4.0549927-2.0399933-8.9879761-3.5200043-12.9229736-5.5749969-6.1630249-3.2189941-8.1079712-5.6849976-16.4520264-5.6430054-2.0549927.0099945-4.1430054,1.2310028-5.7890015.9470062-2.46698-.4259949-5.9450073-3.6730042-9.2839966-3.8300018-5.585022-.2630005-6.7979736,4.0019989-9.7459717,7.6719971-1.8179932,2.2630005-4.6959839,6.6990051-6.2369995,8.2550049-1.8779907,1.8959961-4.7819824,2.0579987-6.1820068,3.322998-4.3569946,3.9380035-9.1489868,23.8069916-14.9609985,25.5340118-1.6079712.4779968-3.2520142-.1690063-4.882019,1.1180115-2.1350098,1.6849976-4.5819702,7.2609863-6.4130249,9.5870056-2.184021,2.7749939-5.664978,3.6109924-6.8610229,7.0090027,6.8640137,7.0979919,15.4450073,8.5190125,24.1220093,11.7120056,7.9559937,2.928009,10.2999878,4.1390076,19.007019,5.9930115,4.8239746,1.0270081,7.6069946,5.0400085,10.4190063,5.618988,4.6420288.9559937,3.5300293-2.144989,5.2680054-3.375s7.6380005.3309937,9.3720093,1.4710083c.9890137.6499939,1.0910034,2.2099915,2.1160278,3.0799866,1.9039917,1.6159973,4.4799805,2.678009,6.0479736,4.9720154l13.1719971-13.4460144c-.2550049-2.5939941-2.3809814-6.7539978-2.2719727-9.0700073.1129761-2.4049988,3.5759888-5.1529846,3.6099854-6.9609985.0360107-1.9259949-2.5579834-3.6400146-1.9060059-5.8340149.3330078-1.1210022,4.5889893-5.6530151,5.7189941-7.355011,1.0830078-1.631012,5.098999-7.5490112,5.2119751-8.8510132.1350098-1.5599976-1.0230103-3.7720032-1.085022-5.9240112-.2050171-7.0830078,1.2249756-13.4710083.927002-20.427002l.0010376-.0009766Z" fill="#b3b3b3"/>
  <path id="Jefferson" d="M807.1718457,254.0011181c-1.0280151-1.0700073,5.1489868-11.746994-2.0059814-11.9759979-.8140259,2.3670044-1.6799927,5.5540009-2.8109741,7.6970062-1.5809937,2.9960022-10.0540161,13.4099884-12.6729736,15.3279877-1.4130249,1.0350037-3.4689941,1.0820007-4.5969849,2.4030151-1.1160278,1.3080139-1.617981,4.3599854-2.7399902,6.2600098-1.8590088,3.1489868-9.5239868,13.1870117-9.2650146,15.7210083l31.5599976,24.6239929c1.8969727.2380066,1.2930298-.1730042,1.7230225-1.3110046,1.3790283-3.6499939,1.789978-7.7049866,3.0570068-10.9580078,1.7130127-4.3970032,2.4769897-6.5769958,3.947998-11.052002,1.5900269-4.8380127,4.6350098-9.1570129,5.8640137-14.1229858l-3.742981-3.0429993c1.3449707-2.8980103.1710205-6.256012.6660156-9.0390015.5139771-2.8890076,3.473999-3.1929932.0579834-7.8370056-1.4609985-1.9859924-6.6350098-1.6139984-9.0430298-2.6929932l.0018921-.0010223Z" fill="#b3b3b3"/>
  <path id="Pleasants" d="M277.1408398,274.0051311c.8150024-.631012-1.6119995-17.8299866-1.9790039-20.4839935-.6520081-4.7140045-7.0660095-.6040039-9.9219971-.0130005-1.1260071.2330017-2.2680054-.6329956-3.3760071-.3430023-1.5920105.4160004-2.4079895,2.7189941-3.7109985,3.3559875-1.6329956.7990112-3.7630005.4299927-5.7380066,1.2630005-5.3609924,2.2600098-4.9880066,9.2619934-7.2290039,10.8089905-1.7680054,1.0920105-3.4940033-.6300049-5.4589996-.5599976s-4.7149963,1.875-6.8549957,2.2070007l-11.7089996,8.2770081c1.8309937,1.9169922,17.9459991,12.6459961,18.9869995,11.5100098l2.1100006-6.8989868c6.3809967.1180115,12.7330017-1.0809937,18.9309998-2.5669861,1.894989-.45401,4.3590088-2.1889954,5.5969849-2.3039856,1.1990051-.1109924,2.5679932,1.0209961,3.7579956.723999,1.927002-.480011,1.2529907-6.6619873,6.5939941-4.9750061l.0010376-.0010376Z" fill="#b3b3b3"/>
  <path id="Harrison" d="M411.4088452,293.7781109c-2.5069885-3.2529907-1.1440125-20.506012-.6019897-25.2999878-.1239929-1.1520081-6.4840088-5.8439941-7.9419861-6.6600037-4.6929932-2.625-31.7680054-9.2779999-37.4150085-9.5079956-4.7529907-.1940002-2.6830139,2.5509949-3.3989868,5.0960083-.5360107,1.9030151-3.5360107,1.3370056-4.4909973,2.5939941-.6210022.8179932.2990112,2.1640015.0589905,3.098999-.2879944,1.1210022-1.3210144,2.0799866-1.4830017,3.4899902-.5880127,5.1319885,3.0230103,5.5929871,3.0639954,5.95401.3450012,3.0450134-2.5979919,3.848999-3.9169922,6.1090088-.8070068,1.381012-.8880005,3.4559937-1.6090088,4.3909912-1.0799866,1.3989868-4.1470032.5979919-5.5050049,4.4979858-.8619995,2.4750061,2.2330017,1.0220032,2.9400024,1.5190125.3869934,2.0320129-.6390076,5.2919922.5209961,6.993988,1.6690063,2.4509888,6.5840149,1.6539917,3.5230103,7.9689941,1.8510132-.0450134,3.9750061-.3680115,4.9400024,1.5830078,1.3200073,4.5369873-4.1679993,6.0339966-7.3540039,7.4110107-2.322998,1.0039978,1.5889893,3.4809875,3.1170044,3.8110046,2.4360046.526001,5.006012-.0119934,7.5830078.4169922,11.5469971,1.92099,27.3890076,10.8580017,39.25,9.8059998,1.3670044-.1210022,2.6080017-.5209961,3.8869934-.947998l.6300049-.6950073c.2260132-4.0079956-.6990051-8.5350037.4110107-12.42099,1.1350098-3.9750061,8.57901-11.4859924,8.5549927-14.4809875-.0220032-2.8670044-3.9159851-3.6260071-4.7640076-4.7260132l.0009766-.0020142Z" fill="#b3b3b3"/>
  <path id="Doddridge" d="M350.8998425,280.774113c.6900024-.756012.7659912-2.1629944,1.3739929-3.0979919.7309875-1.1229858,2.5329895-2.3710022,2.7160034-3.269989.2999878-1.4689941-1.9039917-5.6130066-1.9119873-7.9159851-.0090027-2.4389954,2.2529907-3.7229919,2.0190125-4.8420105-1.1879883-1.5490112-3.0130005-3.571991-4.881012-4.1820068-1.0639954-.3469849-6.5750122-1.3009949-7.4249878-1.2059937-4.1749878.4700012-9.6799927,6.2999878-14.6319885,3.756012-.9070129,9.2319946-11.8590088,12.4219971-18.493988,18.0159912-2.3559875,1.9859924-13.6849976,13.0660095-13.3680115,15.3200073l15.8540039,32.177002,16.9049988,3.3869934c.6319885-2.2659912,2.9639893-6.302002,4.6260071-7.8659973,2.072998-1.9490051,5.5339966-1.4240112,8.0169983-2.9830017,2.9299927-1.8410034,4.0920105-6.6919861,5.4370117-7.6300049,1.1929932-.8320007,2.8429871.8240051,4.3129883.4549866,1.4989929-.3760071,3.3450012-3.2390137,5.7049866-2.875-.302002-2.605011-6.9930115-2.9890137-6.9890137-4.4930115l1.9549866-2.8989868c-.6820068-1.4150085-2.8729858-2.3569946-3.4660034-3.6010132-1.428009-2.9989929.3909912-5.3619995-4.4679871-7.5799866-.2479858-1.0369873,3.0400085-5.8439941,3.9530029-6.9670105.7829895-.9630127,2.2059937-1.1010132,2.7579956-1.7059937l.0029907.0029907Z" fill="#b3b3b3"/>
  <path id="Taylor" d="M461.1568615,258.0251201c-2.5960083-.2950134-3.3370056-2.6849976-6.2919922-1.8469849-.5249939.1489868-8.4330139,5.1610107-9.230011,5.822998-1.5570068,1.2929993-2.0339966,3.2139893-3.17099,4.0679932-2.7390137,2.0559998-7.9100037,2.0119934-10.993988,3.8299866l-1.3309937-.2950134-2.571991-3.4710083-13.2839966,2.0130005c-1.473999.9689941-1.723999,20.7019958-.6279907,22.8840027.868988,1.7309875,4.7200012,3.9030151,5.4769897,6.5230103,3.8840027,1.6759949,7.8930054-.2799988,11.5069885-.5450134,6.8779907-.5039978,13.3940125.2569885,19.4849854-4.5150146,2.6340027-2.0639954,3.0220032-7.4119873,6.3519897-6.3320007.5379944.1740112,4.6809998,3.6629944,4.6809998.3649902v-28.500946Z" fill="#b3b3b3"/>
  <path id="Wood" d="M236.1598523,291.0381206c-5.1820068-2.5830078-11.9120026-5.4119873-16.0480042-9.4670105-1.1260071-1.1040039-6.2160034-7.0700073-6.8280029-8.1719971-1.3079987-2.3529968-1.0500031-4.8649902-2.6670074-7.3340149-4.5899963-7.0079956-7.8739929.5880127-11.9669952,3.9519958-2.3190002,1.9060059-7.776001,4.4710083-8.9949951,7.0050049-1.8410034,3.8259888.0720062,16.605011-6.8890076,15.9920044-4.2709961-.3760071-16.9689941-5.0939941-16.6719971,2.4930115.0780029,1.9949951,1.5749969,3.8460083.1329956,5.8930054-.776001,1.1019897-3.470993.7999878-5.0570068,2.1409912-2.279007,1.928009-1.7599945,6.071991-5.0679932,7.0450134,1.4109955,5.3470154,2.151001,11.0220032,1.4889984,16.4330139,5.5910034,3.3259888,11.2089996,7.052002,16.8860016,10.1870117,1.6719971.9230042,8.2590027,4.6489868,9.5720062,3.7149963.397995-1.9559937,1.701004-3.1159973,3.0879974-4.42099,4.3300018-4.071991,13.2839966-11.6270142,18.0950012-14.901001,5.7070007-3.8840027,17.7519989-7.2739868,21.9599915-12.0400085,3.0879974-3.4979858,5.3419952-14.2609863,8.9680023-18.5209961l.0000153-.0000305Z" fill="#b3b3b3"/>
  <path id="Ritchie" d="M239.1598523,340.030125c4.4810028-2.9509888,9.6529999.7449951,12.5140076.6440125,1.0169983-.0360107,2.4140015-1.3779907,4.0160065-1.6199951,8.4820099-1.2820129,5.4749908,4.2550049,9.7169952,6.2220154,2.0840149.9660034,9.0069885,2.1220093,11.2279968,1.743988,2.79599-.4760132,5.3320007-3.9500122,7.8089905-5.2059937,2.4490051-1.2420044,5.2940063-1.3059998,7.6419983-2.3580017,3.4429932-1.5429993,6.17099-5.5360107,9.7250061-7.2749939,2.2260132-1.0889893,5.8269958-1.1090088,6.8909912-3.1440125,1.5509949-2.9679871-3.4670105-9.5010071-4.7460022-12.3070068-3.5570068-7.7999878-6.7900085-15.7449951-10.6430054-23.4150085-1.4960022-3.5350037,3.0109863-4.730011,3.6740112-6.9590149.8989868-3.0220032-.5830078-7.3880005,1.0010071-10.7099915l-5.3299866-5.6069946c-3.1549988,3.6690063-1.375,6.553009-7.1990051,7.7850037-4.1400146.875-7.303009-.6489868-11.2990112-.803009l-.1059875,3.8959961c-2.6270142,2.0159912-5.3250122.1570129-7.2630005.3370056-2.7349854.2529907-10.8639984,4.1170044-16.1130066,4.7900085-1.6860046.2160034-5.5599976-.4899902-6.3950043.1109924-.7079926.5090027-1.7539978,5.822998-2.6130066,6.8840027-.9160004,1.131012-3.1190033.9790039-4.5659943,2.4339905-4.7129974,4.7359924-5.3410034,16.1530151-8.897995,21.9679871,3.4380035,2.6659851,6.8959961,5.1860046,8.701004,9.3399963s1.0469971,8.8819885,2.2559967,13.2510071l-.003006-.0019836Z" fill="#b3b3b3"/>
  <path id="Grant" d="M559.8978589,333.2771343c3.3170166,3.6409912.4160156,21.105011-4.7260132,24.2489929l34.4849854,29.4899902c.5700073,0,6.5770264-8.1459961,6.9959717-8.993988,1.0159912-2.0570068.177002-4.6459961.9429932-7.0570068.7839966-2.4679871,3.9650269-3.993988,4.4379883-5.6170044.8770142-3.0069885-3.9710083-10.598999-4.6799927-14.0180054-1.4730225-7.098999-1.367981-13.3819885,1.59198-20.0159912,1.2650146-2.8359985,5.7559814-7.9599915,6.0770264-9.9899902.2579956-1.6340027-1.072998-3.0610046-.7290039-4.5920105.2449951-1.0910034,4.1129761-6.8599854,5.0709839-8.9989929,1.2470093-2.7820129.8800049-6.0669861,3.7249756-8.2089844-.7009888-.9630127-1.5869751-1.7059937-2.5869751-2.3460083-3.1049805-1.9869995-20.9329834-12.8349915-22.8530273-13.144989-1.6270142-.2630005-3.4089966.223999-5.0159912.0159912-5.2769775-.6849976-10.5689697-1.5759888-15.8740234-2.0840149-2.7130127,7.368988-3.7379761,3.8919983-7.9689941,4.2829895-3.3400269.3089905-4.2529907,4.1440125-6.0960083,5.8139954-1.7069702,1.5469971-4.15802,1.8580017-6.0800171,3.9200134-1.8619995,1.9970093-2.302002,4.6210022-4.4130249,6.5870056-1.0609741.9890137-9.3259888,5.493988-9.0410156,5.95401,1.7349854,2.7950134,4.4799805-.8460083,6.6939697-1.3009949,2.1530151-.4419861,4.3579712-.0159912,6.585022-.4150085,5.3510132-.9599915,7.2360229-5.3070068,13.2769775-2.8320007,8.3170166,3.4089966.4630127,10.4630127-1.0789795,15.0289917-.6270142,1.8569946-2.2470093,9.973999-2.1459961,11.5700073.0980225,1.5379944,2.6989746,1.9240112,3.4069824,2.7019958l-.0007935.0010071Z" fill="#b3b3b3"/>
  <path id="Barbour" d="M473.0538342,327.9171184c.9060059-2.3670044-1.8340149-4.2130127-1.8500061-6.3680115-.0119934-1.6659851,1.4639893-3.5270081,1.7409973-5.2369995.7739868-4.7640076.9670105-9.8039856,2.151001-14.6809998-.6279907-2.1350098-4.4219971-1.053009-6.0249939-3.019989-1.8699951-2.2940063-.0090027-8.5929871-4.5270081-10.5320129-1.0090027-.2019958-3.276001,2.1960144-5.2810059,2.4519958-1.2250061.1560059-3.526001-.9360046-4.0469971-.4700012-.3080139.2749939-.4760132,3.0639954-2.0759888,4.4519958-.5469971.473999-8.5299988,3.8729858-9.7470093,4.2489929-7.2619934,2.2430115-17.4570007,1.5910034-25.071991,2.4349976-1.2890015,3.6239929-7.5950012,10.0539856-8.1489868,13.3439941-.3349915,1.9890137-.3469849,8.0020142-.0130005,9.9830017.7189941,4.2650146,7.4330139,5.7539978,9.9769897,8.0230103,1.9079895,1.7009888,2.8850098,6.4020081,6.019989,7.980011,3.5830078,1.803009,9.0369873-1.4819946,11.4989929,3.5010071,1.3710022,2.776001,1.0960083,12.5270081-1.4979858,14.9920044l25.803009-4.1860046c1.5690002-1.2460022,4.6140137-19.4110107,6.4119873-23.0929871.9599915-1.9639893,2.5809937-3.3009949,4.6809998-3.8240051h.0010071Z" fill="#b3b3b3"/>
  <path id="Tucker" d="M526.9118359,305.2791179l-29.2520142-11.2260132-19.3150024,8.1640015c-2.2609863,4.7229919-1.4020081,10.6359863-2.375,15.118988-.368988,1.6990051-2.3080139,3.1170044-1.75,5.0639954,4.5490112,2.9230042,8.1879883,5.6270142,10.1919861,10.9509888,1.0549927,2.8039856-.9620056,5.4979858-.1929932,8.6140137,10.6359863,2.8760071,21.2829895,5.7330017,31.946991,8.5509949,12.0230103,3.177002,16.0559692,3.7860107,28.4899902,3.6329956,1.9979858-.0249939,8.3829956,2.5020142,9.3829956,1.7780151,2.2780151-4.8450012,5.5040283-13.9840088,3.9450073-19.2319946-.5120239-1.7229919-3.1339722-2.6119995-3.651001-4.3389893-.6469727-2.1610107.4190063-11.0859985,1.0139771-13.6419983.8049927-3.4599915,6.0289917-7.0880127,4.7410278-11.6210022-5.03302-3.072998-8.1870117,1.8510132-12.6300049,2.7319946-3.5230103.697998-6.5289917,1.2189941-9.9920044,2-8.9310303,2.0140076-7.0239868-3.4219971-10.5540161-6.5469971l.000061.0010071Z" fill="#b3b3b3"/>
  <path id="Hardy" d="M675.998872,323.8561138c-3.9310303,2.7430115-9.8060303-3.3840027-12.5789795-4.5929871-3.1270142-1.3640137-7.059021-.8829956-10.2979736-1.7019958-4.9140015-1.2420044-21.414978-7.5220032-26.2199707-9.7799988-3.1849976-1.4970093-6.059021-4.1369934-9.2180176-5.8049927-4.6790161-2.4700012-4.6610107,4.7019958-6.0369873,8.0390015-2.2410278,5.4370117-2.4130249,6.5090027-3.9459839,12.0539856-.7199707,2.605011-4.0109863,6.5820007-5.4039917,9.5960083-3.3469849,7.2470093-3.4050293,10.6759949-1.9219971,18.6409912.8469849,4.553009,6.4710083,12.4429932,4.2880249,16.723999-.7789917,1.5280151-3.8250122,2.8630066-4.3369751,4.6629944-.5499878,1.9360046.1170044,4.1400146-.6060181,6.3940125-.9689941,3.0209961-7.8809814,8.552002-6.0999756,11.9429932.6190186,1.178009,8.1950073,7.4349976,8.5310059,6.993988-.8060303-3.8930054,1.3920288-2.7290039,3.3690186-4.1149902,3.7440186-2.6260071,4.072998-7.7200012,6.4249878-11.6010132.4589844-.7569885-.3099976-1.6679993,1.7249756-1.3200073,4.3619995.7460022,15.6589966,14.4029846,20.4769897,17.0360107,2.8900146-5.2839966,5.0800171-11.1809998,8.1660156-16.3439941,2.0549927-3.4379883,6.4310303-10.0809937,8.8359985-13.1640015,5.0939941-6.5339966,7.8779907-1.5369873,11.6989746-3.2269897s7.0230103-8.0289917,11.2410278-9.8320007c4.4450073-5.2330017,6.7280273-11.8080139,10.6400146-17.3599854.875-1.2420044,7.8040161-7.9349976,6.4219971-9.0570068-5.0449829-1.2019958-6.8920288-8.5769958-12.9949951-7.5880127-1.4530029.8640137-1.7310181,3.1029968-2.1589966,3.401001l.0018311.0029907Z" fill="#b3b3b3"/>
  <path id="Wirt" d="M250.1548474,343.0311321c-4.6790009-2.3039856-8.673996.2720032-13.0630035-.4349976-.3659973-1.5390015-2.5189972-4.1730042-2.7059937-5.2269897-.1909943-1.0750122.8450012-3.1340027.8639984-4.8399963.0370026-3.3699951-2.6029968-7.8039856-5.0469971-10.0490112-1.4920044-1.3710022-5.7189941-2.82901-5.9989929-4.0419922-.3549957-1.5390015,2.0820007-3.0109863,1.4589996-4.3999939-5.901001,4.7149963-13.2980042,6.3410034-19.4340057,10.5599976-3.8179932,2.6260071-7.1309967,6.4660034-10.5800018,9.4200134-3.3099976,2.8340149-7.2700043,3.9620056-9.427002,8.5090027.9340057,1.8800049,4.1089935,2.3519897,4.7619934,4.1719971.2630005.7330017,1.2749939,6.2080078,1.2160034,6.8039856-.1609955,1.618988-2.1990051,2.6499939-1.9429932,3.8609924.302002,1.4240112,4.6000061,6.5910034,6.3410034,6.6300049,3.9060059.0870056,7.5829926-3.7579956,8.0370026-3.7869873,1.2720032-.0809937,3.8410034,2.901001,5.1750031,3.6640015,3.848999,2.2009888,8.0769958,3.8569946,11.9949951,5.9419861l11.2050018-3.9410095c1.2920074-7.4419861,10.095993-14.8200073,15.6419983-19.8500061,1.0200043-.9249878,1.8399963-1.394989,1.5019989-2.9899902l.0009918-.0010071Z" fill="#b3b3b3"/>
  <path id="Lewis" d="M394.0918591,329.0911297c-13.3819885-1.9979858-25.5360107-9.5830078-39.243988-9.256012l-7.0679932-3.723999c-1.7179871.5599976-1.9649963,2.678009-2.9249878,3.6109924-2.6260071,2.552002-5.8169861,1.7179871-8.256012,3.2449951-4.5599976,2.8529968-4.5379944,10.1809998-10.447998,9.0610046,1.4809875,5.631012.3299866,12.1690063,3.1350098,17.368988,1.7669983,3.2739868,5.6489868,6.3009949,7.8630066,9.1369934,3.5150146,4.5020142,7.7269897,11.6220093,11.4649963,15.5350037,2.2680054,2.3739929,6.0910034,4.1629944,8.5650024,6.4349976,1.9079895,1.7529907,12.678009,13.92099,13.4819946,15.5180054,1.4440002,2.8710022-.3909912,7.053009.9649963,10.0690002.6619873,1.0629883,4.7479858-.4849854,6.0369873,1.9289856,1.1950073-.3649902.2900085-2.1659851.0419922-3.0429993-3.368988-11.92099,1.4419861-25.4370117,7.0050049-35.8970032.5289917-.993988,2.0570068-1.6690063,2.3510132-2.7330017.4200134-1.5220032-1.3389893-3.5849915-.8590088-4.230011.0799866-.1069946,1.6530151-.4400024,2.4450073-1.0589905,4.9119873-3.8330078-.1629944-5.7879944.480011-10.493988.2409973-1.7659912,1.9649963-2.8630066,2.5509949-4.519989.8619995-2.4339905,3.6489868-15.8609924,2.4150085-16.9549866l-.0010376.0020142Z" fill="#b3b3b3"/>
  <path id="Upshur" d="M424.0838635,402.9521221c-.1390076-5.4979858,3.927002-13.4440002,3.9460144-18.4219971.0130005-3.4039917-2.4330139-8.5079956-1.8890076-11.9700012.302002-1.9219971,2.1940002-2.9930115,2.5329895-4.4339905.2659912-1.1329956-.7690125-2.1849976-.0360107-4.0350037,1.0769958-2.7210083,5.9490051-7.3959961,6.348999-8.7359924.4339905-1.4549866.4869995-8.3320007.04599-9.7049866-.9909973-3.0849915-7.0140076-.677002-9.8779907-2.1220093-2.9899902-1.5090027-5.8850098-7.3980103-8.4760132-9.5239868-.8439941-.6919861-7.9970093-5.446991-8.4899902-5.5679932-1.1530151-.2829895-2.0220032,1.3200073-3.5360107,1.5830078-2.3049927.401001-5.1029968-.2369995-7.4989929.0020142-.177002,5.1740112-.6459961,12.1749878-2.4769897,17.0239868-.6220093,1.6470032-2.3989868,2.8699951-2.5639954,4.5150146-.2650146,2.6530151,2.7829895,5.0159912,2.0969849,8.8370056-.1629944.9049988-2.6350098.9989929-3.5419922,2.6369934-.95401,1.7219849-.743988,4.5620117-1.5400085,6.2879944-.3869934.8399963-2.9570007,6.1860046-3.1740112,6.5010071-.3900146.5660095-2.4110107.631012-3.2879944,2.2090149-1.0050049,1.8070068-3.3009949,17.5910034-3.4660034,20.5830078-.1340027,2.4200134,1.5010071,5.3770142,1.875,7.8349915l.6940002.6260071c3.4070129-.2030029,8.1329956-.7709961,9.8859863,2.9519958.9509888,2.019989-.197998,4.5669861,1.9949951,5.9760132,7.1260071-1.2590027,7.1950073-7.9240112,12.1730042-11.8150024l18.2619934-1.2380066-.000946.0009155Z" fill="#b3b3b3"/>
  <path id="Randolph" d="M480.1528637,344.024113c1.2049866-5.3519897,2.4630127-12.9370117-3.3779907-15.9249878l-5.8439941,5.2000122-6.8540039,24.6470032c-9.3299866,1.67099-19.1109924,2.1579895-28.3770142,4.1220093-4.4440002.9419861-2.9299927,3.9649963-3.9890137,7.0119934-.5580139,1.6059875-2.3559875,2.6719971-2.5910034,4.4899902-.3659973,2.8309937,1.901001,7.927002,1.9030151,10.95401.0010071,1.7229919-3.6809998,18.1950073-4.3930054,19.473999-.6369934,1.1440125-1.651001,1.8829956-2.9729919,2.0270081l-16.8559875.9590149-5.4639893,9.381012,14.8299866,34.2269897-7.0039978,24.4330139c9.4070129-5.3989868,20.0979919-8.8129883,29.9070129-13.5870056,1.6600037-.8080139,3.131012-2.4330139,4.7470093-3.2529907,11.4429932-5.8049927,23.6659851-8.1040039,26.2569885-22.7430115,1.446991-8.1719971,2.473999-9.0700073,5.57901-16.42099,1.1990051-2.8399963,2.0710144-8.2049866,3.4429932-10.3320007.1610107-.2489929,4.4389954-3.4869995,4.7220154-3.5740051,3.9909973-1.2369995,8.5880127,8.1950073,7.3410034,11.9049988,3.5400085-.8540039,5.1589966,1.3380127,7.973999,1.9949951,1.2709961-5.9460144,6.9719849-2.5130005,9.5589905.9909973l.947998.0190125c2.9020081-4.7609863,17.7149963-21.8659973,16.4179993-26.3280029-.4630127-1.5939941-2.5449829-1.6119995-2.9520264-5.1180115-1.072998-9.2260132,2.1329956-16.5809937,11.9569702-17.6499939l.1970215-5.8009949c4.3729858-2.927002,12.7789917,1.7409973,15.934021-2.7669983,2.882019-4.1180115-3.0430298-5.2529907-6.5369873-5.2139893-3.3410034.0379944-14.4879761,1.0750122-16.8469849.6539917-.8670044-.1549988-2.2960205-1.6319885-3.8530273-2.0830078-14.4859924-4.1940002-29.2099915-7.9060059-43.8040161-11.6950073v.000946Z" fill="#b3b3b3"/>
  <path id="Gilmer" d="M323.0058606,331.1851238l-10.1610107-2.0419922c-3.3349915,4.7550049-7.9490051,4.4410095-12.0310059,7.0400085-2.6679993,1.6990051-4.5939941,4.8900146-7.7319946,6.2680054-2.3150024,1.0169983-5.1149902.9330139-7.1910095,1.8089905-3.2650146,1.3770142-6.2829895,6.3150024-10.7359924,5.7690125-1.0239868.7780151,4.4020081,6.197998,4.8139954,7.7430115.7780151,2.9190063-.8510132,8.1499939-.8680115,10.7529907-.0109863,1.6579895,1.0350037,3.2680054,1.0780029,4.9809875.2290039,9.1749878.7690125,15.2900085-7.7390137,20.3250122-.5559998.32901-2.0490112.0780029-1.2799988,1.6860046,1.2460022,2.6059875,12.0660095,5.4309998,9.9989929,11.5100098.5499878.6499939,4.9039917-1.9079895,5.9360046-2.5639954,8.3800049-5.3349915,40.2810059-31.5270081,46.7009888-32.1900024,2.3789978-.2460022,5.8980103,1.5840149,8.3580017-1.7569885l-16.5050049-20.4830017-2.6430054-18.8479919.000061-.000061Z" fill="#b3b3b3"/>
  <path id="Jackson" d="M187.9458478,347.2371257c-.3800049-.4660034-6.9340057-3.1579895-8.473999-4.0270081-7.4450073-4.2030029-14.848999-8.5329895-22.2769928-12.7720032-3.6670074,1.6789856-6.7799988,3.2179871-11.0379944,2.5899963-.6710052,4.7890015,3.0870056,5.1619873,5.526001,7.9760132,5.5169983,6.3659973-.4620056,8.5710144-.4519958,14.5580139.0039978,2.4330139,2.9869995,4.7009888,3.7350006,6.980011l-4.3009949,3.5289917-8.0149994-5.0220032c-3.8670044,5.7980042-3.4609985,14.2359924-12.4929962,14.9819946,4.2109985,6.0650024,7.6450043,12.6929932,11.5460052,18.947998,1.7980042,2.8829956,4.7870026,5.0279846,6.0619965,9.0369873.7409973,2.3309937-1.6340027,2.7720032-1.6519928,4.5069885-.0350037,3.3359985,4.9750061,6.7149963,8.3769989,5.6700134l19.2920074,26.7330017c6.4539948-1.9049988,11.2310028-6.1019897,16.1920013-10.3640137-1.0910034-3.6470032-3.8999939-9.2409973-3.7709961-12.9429932.2949982-8.4330139,4.4620056-19.6400146,4.970993-29.071991.3289948-6.0840149-1.9019928-12.4020081-1.0449982-18.0490112.4199982-2.7659912,3.0769958-2.1019897,3.0839996-3.0100098-.6640015-4.2829895-7.345993-7.0469971-5.8970032-11.7390137.3200073-1.0350037,1.7440033-1.7749939,1.8809967-3.243988.0720062-.769989-.8760071-4.8099976-1.25-5.2680054l-.0010376.0000305Z" fill="#b3b3b3"/>
  <path id="Calhoun" d="M273.8558362,389.7241253c3.7690125-3.7539978,3.5339966-11.2319946,3.3210144-16.2179871-.0740051-1.730011-1.026001-3.3330078-1.0899963-5.0029907-.0830078-2.197998,1.1099854-3.9519958,1.0350037-5.8850098-.1380005-3.553009-2.1730042-5.9320068-3.4039917-8.6530151-.6180115-1.3659973-.4710083-3.7820129-1.4880066-4.5119934-1.7460022-1.2539978-6.3399963.6960144-10.5939941-3.4070129-1.9949951-1.9240112-1.8210144-5.07901-5.8179932-3.8840027-4.8670044,5.5679932-12.2859955,11.7229919-16.6499939,17.3739929-1.5919952,2.0610046-3.7749939,5.3739929-3.6119995,8.0220032.1380005,2.2489929,3.0079956,3.8009949,3.8450012,5.7229919.9179993,2.1080017.5950012,4.3789978,1.5130005,6.4880066.7949982,1.8269958,3.2129974,3.2049866,3.8359985,5.2290039.6779938,2.2009888-1.6289978,6.0299988-1.1109924,8.125.4089966,1.6530151,3.0019989,3.821991,4.0650024,5.855011,3.8609924,7.3859863,5.1139984,15.1029968,5.4190063,23.3900146,2.0110016,1.6669922,10.9649963,7.9419861,12.9219971,6.5490112,1.7070007-5.3070068,13.3580017-15.3609924,13.1000061-20.3059998-.4070129-7.8049927-10.9599915-8.1560059-11.0190125-14.1180115-.0239868-2.4930115,4.2909851-3.3370056,5.730011-4.769989l-.000061.0009766Z" fill="#b3b3b3"/>
  <path id="Mason" d="M146.1558545,415.0181316c-2.6269989-4.3330078-6.5220032-6.4129944-1.1040039-10.4890137-7.4450073-11.0580139-15.1880035-22.098999-20.7539978-34.2200012-.6849976-3.6839905,3.8800049-5.5679932,3.8800049-7.7600098,0-.9129944-3.0770035-7.9599915-3.8180008-9.2229919-3.0559998-5.2059937-3.2959976-2.04599-6.6969986-2.2409973-3.7220001-.2139893-2.6610031-6.8169861-6.1699982-7.8999939-5.1829987-1.6000061-3.2809982,3.8469849-5.8509979,6.8250122-1.6190033,1.8770142-5.3939972,2.1199951-6.5429993,3.6860046-1.487999,2.0280151-3.1920013,8.0130005-4.7399979,11.0310059-1.2190018,2.3760071-3.711998,3.8439941-4.0220032,7.0369873-.1470032,1.5130005.7460022,2.7090149.677002,3.7539978-.0940018,1.4129944-.8239975,5.3590088-1.3680038,6.4960022-2.3399963,4.8890076-11.052002,5.2820129-12.3600006,9.6799927-1.125,3.7839966,2.1689987,4.1820068,3.3359985,6.3659973,2.6869965,5.0279846.9929962,12.9379883,1.5210037,18.4790039.7080002,7.4190063,5.4380035,13.0090027-2.9759979,18.9859924l20.9840012,19.5-.5550003-25.0180054c7.7170029-4.5289917,15.2099991-10.1640015,24.159996-11.8829956,7.2330017-1.3900146,15.1920013-1.348999,22.3999939-3.1059875Z" fill="#b3b3b3"/>
  <path id="Pendleton" d="M596.1628735,421.0291179c-.1959839-7.5499878,1.3410034-14.3340149,4.5599976-21.019989l-46.559021-38.9830017c.9320068,3.1589966-4.5390015,5.9679871-6.9920044,6.5799866-2.21698.5539856-6.2700195-1.4070129-9.0139771-.5840149,1.4069824,10.6579895-9.9140015,4.5620117-11.7680054,14.7290039-1.2910156,7.0820007,1.8709717,7.3699951,2.5949707,12.0230103.9019775,5.7969971-8.8150024,16.3330078-12.2369995,21.3429871-1.1450195,1.6759949-7.572998,11.5329895-7.4660034,12.2449951.1879883,1.2489929,1.8850098,2.355011,1.7109985,4.0039978-.1919861,1.8129883-2.5759888,3.8659973-3.8240051,5.1610107-.0220032.9549866,13.5329895,5.9440002,15.6839905,7.3049927,6.5739746,4.1589966,7.4569702,14.6350098,12.3209839,20.6789856,7.5819702,1.9060059,15.414978,6.4339905,22.9279785,8.0650024,7.9429932,1.723999,5.5949707-.8940125,9.03302-5.0700073s8.1610107-5.6870117,9.7849731-12.2149963c1.8969727-7.6229858,8.4420166-22.5360107,12.4420166-29.5580139,1.9860229-3.4869995.3540039-5.6140137,6.7999878-4.7019958l.0010986-.0019531Z" fill="#b3b3b3"/>
  <path id="Roane" d="M192.1508496,371.0311321c.5449982,4.8340149,2.3739929,11.7550049,2.0359955,16.5029907-.7089996,9.9400024-3.4759979,21.0010071-5.0119934,30.9230042,2.5890045,8.5549927,4.7059937,17.5360107,10.4089966,24.6409912,7.5630035,2.4490051,16.0910034,1.4920044,23.973999,3.0270081,3.6380005.7080078,7.8610077,3.0050049,11.102005,2.9890137,2.1759949-.0109863,9.7770081-.8389893,11.8049927-1.2789917,3.8079987-.8280029,12.5289917-9.8049927,14.7139893-13.2829895,3.8160095-6.072998-9.3269958-5.8500061-10.852005-11.1950073-.0269928-8.6889954-1.8190002-16.4809875-5.9669952-24.0329895-.8249969-1.5020142-2.6860046-2.8320007-3.0319977-3.9679871-.9199982-3.0289917.5099945-7.3819885-.3769989-10.6229858-.4369965-1.5960083-2.6580048-3.2309875-3.2579956-4.7420044-.5930023-1.4930115-.3179932-3.1659851-.7779999-4.2219849-.4429932-1.0169983-2.7079926-5.1369934-3.2570038-5.7630005-2.2579956-2.5740051-8.6999969,3.1759949-11.8529968,2.8089905-.7539978-.0880127-10.848999-4.776001-12.3560028-5.5799866-1.5350037-.8190002-3.2960052-3.2990112-4.6179962-3.0870056-1.9450073,1.5469971-5.2890015,1.7529907-7.0769958,2.9779968-1.9859924,1.3609924-1.9790039,4.6610107-5.6040039,3.9079895l.0010071-.0030518Z" fill="#b3b3b3"/>
  <path id="Braxton" d="M299.1638501,453.024113l14.6499939-9.9070129c1.993988-.4440002,4.9649963,5.2390137,7.0239868,5.7969971,1.2349854.3349915,3.8850098-.9039917,5.8049927-.9719849,3.6610107-.1300049,7.3089905,1.9819946,10.8439941.9070129.8460083-.2569885,10.5350037-10.9700012,12.1940002-12.7990112,2.2850037-2.5180054,4.5610046-4.3999939,6.4960022-6.5039978,3.0180054-3.2810059,10.8609924-18.8779907,11.7779846-23.2229919,2.0050049-9.5020142-1.1940002-9.1480103-5.7900085-14.8059998-1.8099976-2.2279968-3.5580139-5.5939941-5.4620056-7.5379944-3.973999-4.0559998-10.0820007-5.8590088-13.0310059-10.8940125-2.1430054,1.2200012-5.0929871,3.1289978-7.4869995,3.5270081-4.8519897.8080139-3.605011-1.177002-9.3529968,2.5880127-11.8439941,7.7579956-34.4729919,22.6539917-44.178009,31.821991-3.0280151,2.8599854-4.3160095,6.7850037-7.4869995,9.5020142,6.618988,2.5629883,6.2170105,9.8770142,9.9580078,14.0310059,2.0010071,2.2219849,6.2399902,3.381012,8.0669861,5.9330139,1.3729858,1.9179993,1.2409973,4.1000061,2.1740112,5.8259888,1.2120056,2.2399902,3.8640137,3.7049866,3.7969971,6.7090149l.0010681.000946Z" fill="#b3b3b3"/>
  <path id="Webster" d="M391.2448437,418.9341167c-2.946991-6.2160034-.2640076-9.5740051-8.605011-8.9309998-4.9670105.3829956-4.5830078-.3269958-7.9389954-.5759888-1.3359985-.098999-3.7170105.927002-5.4240112.7160034l-7.0939941,16.4079895-27.7399902,29.9429932c.5629883,3.2109985,6.256012,15.6090088,5.2770081,17.5140076-.4370117.8500061-2.348999,1.7269897-2.3940125,2.4989929l3.8630066,8.5150146c3.6040039-2.3049927,3.1990051.8420105,5.0020142,2.4710083,4.7279968,4.2730103,15.4500122,9.7160034,21.2929993,13.7049866,5.4930115,3.7489929,10.9129944,7.7520142,16.1759949,11.8240051l1.5159912-10.4779968-.0159912-13.5209961c2.0409851-.6210022,4.6740112,1.3519897,6.3160095.8909912.6870117-.1929932,10.1520081-7.9060059,11.1140137-8.9570007,5.0400085-5.506012,7.006012-21.3410034,10.5629883-28.5140076l-14.0539856-34.3619995-7.855011.8519897.0009766.0010071Z" fill="#b3b3b3"/>
  <path id="Pocahontas" d="M490.0098584,485.872105c.3429871-.4880066,1.3900146-6.9580078,2.3930054-9.1010132.8599854-1.8370056,3.1430054-3.9630127,3.5499878-5.4500122,1.0079956-3.6849976-.427002-8.9450073.2200012-12.7799988.4179993-2.4809875,3.3729858-4.4089966,3.8450012-6.2349854.4840088-1.8720093-.7829895-3.3269958-.447998-5.3049927.303009-1.7860107,2.4970093-8.0190125,3.3720093-9.6910095,1.0429993-1.9949951,3.7399902-3.8479919,4.0759888-5.9899902.2539978-1.6229858-.9140015-3.0280151-.82901-4.7019958.0809937-1.6029968,1.5289917-2.571991.5150146-4.5759888-2.7189941-5.3729858-5.0079956-1.0690002-8.0320129-.9150085-.9769897.0499878-9.1660156-1.2789917-9.5750122-1.5400085-2.223999-1.4200134.5969849-7.1520081-2.3760071-9.6220093-5.3429871-4.4400024-7.7200012,8.7380066-9.0700073,12.0539856-.9719849,2.3880005-3.8670044,6.1499939-4.2919922,7.7080078-.9670105,3.5379944-.4379883,7.9559937-1.9809875,12.0190125-.7179871,1.8890076-5.1589966,8.2229919-6.6820068,9.3179932-7.8800049,5.6659851-20.6130066,9.223999-28.8510132,15.1489868-15.0050049,4.6260071-26.1090088,12.3529968-38.1790161,21.8210144-3.1040039,2.4349976-4.8389893,6.9679871-9.506012,4.9920044-.5,15.5920105-1.946991,31.401001-.5280151,47.0269775,6.769989,4.0180054,11.9750061,13.09198,20.1170044,13.9060059,7.0440063.7039795,13.9039917-.1170044,19.9379883-3.9039917l23.4720154-1.5280151c1.4630127-.7249756,4.6499939-5.6129761,4.8240051-7.1690063.1889954-1.6859741-1.8590088-3.1160278-1.8500061-4.8549805.0090027-1.7199707,4.0469971-4.651001,4.5289917-7.3850098.2890015-1.6400146-1.1260071-3.0460205-.053009-5.1129761.5539856-1.0670166,4.1329956-2.9639893,5.5840149-4.4450073,1.5490112-1.5809937,2.3729858-3.5700073,3.9190063-5.0809937,2.6140137-2.5549927,10.5209961-6.6690063,11.0490112-9.9509888.5899963-3.6749878-.230011-8.7099915,1.526001-12.4729919.1380005-.29599,2.9190063-3.9509888,3.1359863-4.0899963,1.2630005-.8110046,5.7359924-1.4500122,6.1879883-2.0939941l-.0009155.0009766Z" fill="#b3b3b3"/>
  <path id="Putnam" d="M155.1298535,461.9931072c1.875-1.4200134-3.7749939-10.8269958-4.0070038-12.5159912-.2980042-2.1759949,1.0879974-3.980011,1.0890045-5.9519958s-1.3730011-3.7919922-1.102005-5.9670105c.470993-3.7829895,9.1609955-7.8190002,9.1029968-10.019989l-7.0160065-10.0390015-31.3399963,3.7260132c-3.6760025,2.2309875-18.4729996,7.9440002-19.5319977,11.4620056-1.0039978,3.3370056.7109985,5.9150085.8509979,8.8190002.7649994,15.9330139,1.4970016,34.381012.9779968,49.9880066-.0709991,2.1289978-.1460037,4.3070068.1210022,6.4150085,2.7190018.571991,4.5950012,2.0400085,6.3809967,4.1029968l13.0049973-11.9809875c1.4100037-4.2720032.6780014-12.927002,3.9459991-16.0540161,1.7399979-1.6650085,11.0100021-5.8599854,13.8610001-7.1390076,4.2369995-1.901001,9.1950073-3.8330078,13.6609955-4.8439941l.0010223-.0010376Z" fill="#b3b3b3"/>
  <path id="Clay" d="M282.4218457,436.7651104c-2.7999878-3.0740051-3.3619995-11.151001-8.7650146-13.7279968-4.3590088,5.0610046-8.1589966,11.5369873-12.5079956,16.4809875-7.8130035,8.881012-19.1779938,15.2399902-28.5460052,22.4700012,3.3370056,13.8670044,6.348999,27.7569885,7.5599976,42.0379944,22.4860077-13.8959961,46.8969879-25.0849915,66.9669952-42.5280151-.1220093-.9330139.7059937-2.1140137-.6000061-2.4590149-2.1650085-.5710144-7.5589905-1.5750122-8.8869934-2.9989929-1.0969849-1.177002-1.1570129-3.5140076-2.0339966-4.9660034-.7470093-1.2369995-2.3240051-1.9330139-2.9219971-3.0780029-.9309998-1.7799988-.571991-3.9159851-2.0469971-5.9530029-1.881012-2.5960083-6.5020142-3.3970032-8.2160034-5.2799988l-.0019836.0020447Z" fill="#b3b3b3"/>
  <path id="Kanawha" d="M242.1568463,451.0311321c-2.9019928-.019989-6.7879944,1.7489929-9.5410004,1.5759888-1.3040009-.0820007-6.4530029-2.7000122-9.227005-3.3139954-5.0050049-1.1069946-11.5119934-1.7349854-16.7089996-2.2909851-2.1920013-.2349854-4.7619934.473999-6.8509979-.1489868-4.3470001-1.2980042-8.3769989-12.82901-9.1719971-12.8160095-5.3730011,4.5-11.1929932,8.5660095-17.8759918,10.8890076-2.5359955-.5249939-7.2819977-11.743988-9.5979919-13.4679871-2.0899963-1.5570068-8.9700012,5.04599-9,7.0100098-.0200043,1.2999878,1.0619965,3.0859985,1.0749969,5.0559998.0110016,1.7539978-1.0110016,3.5929871-.8699951,4.8649902.3470001,3.1109924,5.7030029,11.1239929,3.3070068,14.6759949-1.6390076,2.4299927-12.9179993,5.2569885-16.2380066,6.7600098-3.8000031,1.7200012-7.7389984,5.2349854-12.0789948,6.4159851l-3.2070007,13.7609863c2.6399994.321991,6.1080017,1.8569946,8.6060028,1.9989929,3.6470032.2080078,5.272995-2.6820068,7.6040039,2.302002,1.9559937,4.1820068,1.7380066,14.5119934.3329926,18.776001-.5789948,1.7559814-1.6329956,2.7559814-3.4700012,3.0689697l.9190063,2.8779907c1.9640045-.3969727,1.8670044-3.2940063,3.6239929-3.8670044,3.5980072-1.1749878,8.9869995,1.2349854,10.6940002.7630005,1.173996-.3250122,1.7599945-1.9219971,2.673996-2.3989868,3.9949951-2.0870056,11.5579987.4530029,13.5019989,4.526001.6300049,1.3200073.227005,3.1640015.6609955,3.8140259.1779938.2659912,4.4660034,1.7849731,5.7890015,2.7160034,4.2859955,3.0150146,9.1049957,9.1370239,13.5859985,12.4530029,1.647995,2.1660156-1.5559998,4.21698-1.0930023,6.0510254,1.2969971,5.1359863,2.8410034,3.2109985,6.2960052,4.7020264,7.5330048,3.2509766,3.8220062,14.7969971,6.4629974,18.03302,1.8670044,2.2869873,7.1470032-.2509766,9.7859955,1.21698,2.4029999-12.0789795,6.0800018-24.4279785,7.9259949-36.5930176.3399963-2.2379761-.6679993-6.9240112,1.0420074-7.9580078,1.2299957-.7440186,3.076004-.0510254,4.5469971-1.4530029,1.8890076-1.8010254,7.1260071-8.6279907,8.9179993-11.0820007.9140015-1.2529907,2.3179932-2.9559937,2.5720062-4.4419861-1.2640076-14.8850098-3.7019958-29.5750122-7.8869934-43.8850098l12.8939972-10.5880127-.0000153-.0030212Z" fill="#b3b3b3"/>
  <path id="Cabell" d="M101.1608517,480.0291179l-.5009995-20.006012-24.9779968-24.0220032c-2.7210007-1.9110107-9.3700027-3.4729919-11.0370026.0119934-2.1850014,10.1239929-2.1399994,21.2139893-7.9160004,30.0849915-2.4249992.6260071-7.6469994,2-10.0680008,1.9830017-1.6259995-.0109863-2.9840012-1.071991-4.7700005-.8829956-3.4399986.3649902-8.75,3.7510071-12.7329998,3.8349915,5.9470005,7.519989,14.2819996,12.7000122,20.9890003,19.5069885,4.5540009,2.4190063,5.4049988-4.4070129,10.0200005-2.026001.4659996.2399902,4.1759987,3.9440002,4.519001,4.4880066,1.8939972,3.006012-3.6899986,3.1990051-4.5979996,4.6669922-2.5169983,4.072998-.644001,10.7330017,4.5360031,11.3829956.5699997.0039978,2.9240036-6.7229919,4.0569992-7.9989929,1.3479996-1.5190125,4.2639999-1.8980103,4.4069977-2.0969849,1.3069992-1.8179932-2.9250031-3.9089966,1.5830002-7.9240112,4.2649994-3.7980042,4.9680023-3.0589905,9.7529984-4.2409973,6.5090027-1.6080017,8.4140015-8.9580078,16.737999-6.7619934l-.0009995.0000305Z" fill="#b3b3b3"/>
  <path id="Nicholas" d="M318.4038403,451.773106c-1.1889954-1.125-2.0369873-4.8240051-4.7399902-4.7909851-1.125.0140076-12.0809937,7.5759888-11.5069885,8.0369873,5.2709961.1650085,10.3970032,2.9070129,7.0690002,8.5799866-5.8330078,3.7250061-10.4609985,8.9429932-16.1459961,12.848999-15.2179871,10.4559937-33.6289978,18.7330017-49.2770081,28.7219849-.6950073.4440002-1.6799927.9190063-1.6459961,1.8450012,3.2350006-.1520081,3.4149933,3.5429993,5.6820068,4.8280029,3.1009979,1.7569885,6.6779938.6080017,9.6180115,1.3830261,2.9849854.7860107,6.2569885,6.8410034,9.7420044,4.3369751,1.2130127-.8709717.8869934-3.3619995,3.4649963-3.6060181,2.2479858-.2130127,4.1210022,1.8629761,4.9909973,1.7800293.7090149-.0670166,1.5230103-1.6240234,2.9630127-1.6959839,3.6889954-.184021,7.6400146,3.940979,8.7640076,7.2609863.8190002,2.4199829.4330139,5.0040283,1.269989,6.7299805,1.7909851,3.6939697,9.3789978,6.4060059,10.4809875,11.5189819l25.6319885,5.4689941,2.3930054-.4689941,38.0239868-33.0010071,3.9259949-4.9119873c-1.8269958-3.3649902-5.5889893-3.9320068-8.2940063-5.7680054-4.7189941-3.2030029-10.3540039-8.1889954-15.3070068-10.6929932-1.822998-.9219971-5.0960083-1.0690002-5.875-2.125-.381012-.5169983-5.4720154-10.9549866-5.5140076-11.5960083-.1589966-2.4330139,1.9679871-3.2780151,2.0270081-4.8940125.118988-3.2619934-5.0570068-11.743988-4.9779968-15.0780029.0490112-2.0870056,2.4750061-2.696991,2.9920044-4.4530029-2.2520142-.0270081-4.1929932-1.0809937-6.4949951-1.0920105-3.1809998-.0150146-7.1289978,2.8479919-9.2579956.8340149l-.0020142.000061Z" fill="#b3b3b3"/>
  <path id="Wayne" d="M55.9198468,493.7671245c-.5289993.4060059-3.3950005,1.1080017-4.1259995,1.0320129l-26.3190002-21.6619873c-4.7539997,1.3059998-8.5939999.9729919-13.3149996-.1090088,1.0640001,3.4370117-.5159998,7.3259888-.0039997,10.4809875.3459997,2.1329956,2.6669998,3.447998,2.9960003,6.0750122.335,2.6700134-.8850002,4.1570129-.9680004,6.0320129-.0749998,1.6900024.9960003,3.105011.941,4.8169861-.1239996,3.8640137-1.5369997,7.7030029-5.9720001,6.5950012,1.4840002,4.677002,1.6569996,11.1219788-1.0880003,15.4029846-1.8459997,2.8790283-5.421.2709961-4.823,2.9990234,1.421,6.4819946,5.8109999,5.1380005,7.9890003,8.0200195,1.0529995,1.3939819.7480001,3.125,1.4589996,4.5410156.8610001,1.7139893,3.8110008,3.2130127,4.9160004,5.0839844,1.9449997,3.2960205,3.2590008,12.1970215,5.7779999,14.7219849,1.3110008,1.3129883,8.2819996,2.8300171,8.7280006,4.8150024l-5.9570007,10.3989868c2.3120003-.3010254,2.5300007,2.1439819,3.7290001,3.0349731,4.1489983,3.085022,9.9379997,4.039978,9.2789993,10.9780273l35.6639977-35.5020142c-1.6539993-1.3670044-1.947998-5.3829956-2.8649979-6.3029785-.7689972-.7709961-2.8440018-.6209717-3.6060028-1.3900146-.9629974-.9719849-.6709976-3.5549927-1.4459991-4.565979-.5189972-.677002-2.598999-.9039917-3.2890015-2.1970215-.4370003-.8189697.875-2.6829834.4290009-4.3530273-.4259987-1.5930176-3.5270004-2.9840088-3.612999-4.1599731-.1529999-2.0910034,3.4819984-10.059021,1.6829987-13.9260254l1.987999-.6480103c.5630035-3.0870056-3.197998-2.5620117-5.0079994-4.3980103-4.0769997-4.1390076-3.8129997-13.67099,2.0460014-16.0570068l-3.4819984-2.5010071c-.9360008.2749939-1.1110001,2.2569885-1.7439995,2.7430115v.0010376Z" fill="#b3b3b3"/>
  <path id="Lincoln" d="M101.0848477,483.1001323c-6.1589966-1.7380066-7.7860031,2.5190125-11.560997,4.7919922-4.2080002,2.5339966-9.5800018,1.5010071-13.4029999,5.6700134-1.4039993.8919983.1269989,2.3789978.0299988,3.8959961-.2570038,4.0109863-3.6210022,4.2539978-5.4700012,6.5899963-5.0780029,6.4169922-5.1520004,16.8109741-6.6090012,24.3720093,4.7050018,1.6040039,2.1139984,4.6660156,3.5899963,7.6019897,2.0599976,4.098999,5.7369995,7.0819702,8.0469971,10.9030151.7529984,1.2459717,2.4629974,1.9390259,2.473999,3.5750122.0299988,4.7080078-6.2300034,7.5469971-9.0439987,10.0050049-.9970016.8709717-7.0690002,6.5-5.9770012,7.5170288,17.6840019-4.9400024,35.4350014-13.5109863,53.8950005-14.0969849l11.6600037-29.84198c1.6309967-2.4060059,4.8589935-4.2890015,6.473999-6.526001s.6600037-4.914978,4.8769989-4.617981c.1060028-6.0320129,2.5970001-11.9179993-.0140076-17.8110046l-15.2129974-1.9920044-12.6689987,11.4230042c-3.3259964,1.7650146-6.4720001-5.0130005-10.9150009-4.6329956-1.0029984-5.7470093,1.5270004-11.3210144-.1699982-16.8259888l-.0019913-.0001221Z" fill="#b3b3b3"/>
  <path id="Fayette" d="M294.9058545,537.2741436c-.4030151-.5219727-1.9320068-.8619995-2.769989-1.6959839-1.3370056-1.3300171-5.9769897-5.4990234-6.4849854-6.5460205-1.0190125-2.1040039-.6530151-9.8519897-4.1329956-10.9260254-1.980011-.6110229-3.9119873,1.0570068-5.8110046.9400024-1.6950073-.1049805-3.3729858-1.8569946-4.0620117-1.8179932-1.4930115.0839844-2.3089905,4.875-7.7940063,3.6240234-2.631012-.5999756-5.2799988-4.0560303-7.3959961-4.6240234-3.1710052-.8510132-6.4929962.0770264-10.0270081-1.9730225-2.7649994-1.6030273-3.4230042-5.6489868-7.677002-5.3059998l-11.5220032,14.6479797-4.0330048,1.5150146c.2570038.6740112.4869995,1.1939697.4029999,1.9619751-1.4539948,13.2709961-6.1300049,26.7919922-8.4360046,39.9509888,5.4369965-3.0499878,4.9290009.7119751,7.4550018,3.0390015,1.3800049,1.2719727,4.3150024,1.7789917,5.0749969,2.9249878,1.6260071,2.4500122-.901001,10.1500244,1.4100037,11.5900269,1.4140015.8809814,5.598999.6459961,7.5359955,1.4639893l29.522995,1.973999.0780029,3.927002,3.4909973,1.0050049.4450073,4.0620117c3.3479919.3309937,7.1799927-.434021,10.4450073.0499878,2.3099976.3430176,4.9379883,2.9160156,6.5920105,2.5079956,6.4200134-1.585022,14.571991-6.78302,20.9089966-9.0800171,2.3429871-.848999,6.7489929.0469971,6.7279968-3.9749756-.0079956-1.598999-3.230011-4.1749878-3.6579895-7.0250244-.7609863-5.0720215,1.0820007-13.4019775-.2109985-17.7890015-.9890137-3.3540039-7.4360046-3.2260132-4.8169861-8.6760254-3.5329895.3770142-8.9330139-1.8480225-10.552002-5.0170288-.993988-1.9459839,1.9049988-7.3510132-.7070007-10.7349854l.0009766.0021362Z" fill="#b3b3b3"/>
  <path id="Greenbrier" d="M383.985841,516.1891216c-3.8540039-1.2550049-8.8280029-8.0910034-12.5270081-6.4089966l-36.8079834,32.2390137-8.2099915,5.8619995c-3.8439941-.2969971-25.3099976-6.1859741-27.1990051-4.7709961-.1359863.1019897-1.0329895,2.8270264-.9500122,3.2739868,1.0539856,5.7280273,12.2000122,2.0009766,12.8630066,2.6450195l-1.8909912,6.3189697c.8479919,1.9899902,4.1549988,3.4470215,4.7220154,5.3499756,1.2929993,4.3430176-.5509949,12.7390137.2070007,17.7929688.4509888,3.0079956,3.5700073,5.2020264,3.79599,7.1900024.2510071,2.2089844-3.4899902,5.2700195-2.7680054,7.7180176,4.3429871,2.4329834,6.3580017,6.4260254,9.4129944,9.651001,4.875,5.1450195,12.0950012,8.9849854,10.6180115,16.8800049,4.4880066,1.440979,9.1950073,2.3889771,13.6940002,3.8079834,7.3160095,2.3079834,15.2730103,6.5750122,23.5390015,4.1160278,3.3129883-.9860229,6.8179932-10.8280029,9.6809998.1729736,1.8970032.4660034,2.776001-2.0449829,4.4880066-2.0449829,2.5870056,0,3.5960083,4.4379883,8.2229919,2.2860107,7.8299866-3.6420288,4.8739929-10.2379761,7.8380127-15.1829834,2.1629944-3.6099854,3.019989-4.3280029,5.2229919-8.7769775,5.2269897-10.5529785,13.4070129-16.96698,21.2330017-24.7329712,7.9890137-7.9279785,18.8640137-16.2440186,20.9840088-27.5460205-4.1210022.2349854-8.4460144-.315979-12.54599-.0510254-2.4859924.1610107-7.4750061.7230225-9.7520142,1.2479858-2.6700134.6160278-5.2929993,3.3300171-8.2369995,3.7630005-3.75.552002-15.197998.1560059-18.45401-1.4719849l-16.8339844-15.1660156-.3460083-24.1610107-.0000305-.0009766Z" fill="#b3b3b3"/>
  <path id="Boone" d="M198.1618512,563.0291484c-.2129974-2.9689941.5939941-6.065979-.5399933-8.9680176-2.1399994-5.4730225-5.1390076-3.0349731-7.5-4.5009766-.3110046-.1929932-3.7420044-5.8889771-3.8309937-6.2440186-.6029968-2.3809814,2.1230011-4.1160278,1.4250031-5.2999878-4.4360046-2.4719849-8.3359985-8.5230103-12.0299988-11.0200195-1.9559937-1.3220215-5.2180023-1.5499878-6.6000061-3.4000244-1.8730011-2.5079956-.2819977-6.1589966-5.6230011-7.375-6.022995-1.3720093-5.7859955,2.3729858-8.822998,2.8339844-3.0910034.4689941-5.9779968-1.7189941-8.8000031-.882019l-5.1820068,5.8410034c-1.5370026-.0189819-2.1130066-4.8270264-3.9869995-3.9790039-.529007.2390137-3.4609985,3.2390137-4.0370026,3.96698-2.6380005,3.3380127-10.6699982,22.5089722-11.3160019,26.7730103-.3320007,2.1950073,1.3600006,5.2849731.7409973,6.1359863-.9160004,1.2589722-7.4309998,2.7979736-6.8889999,6.5599976.5049973,2.6339722,7.3509979,1.1550293,9.3460007,1.5120239.8099976.1450195,1.1139984,2.1729736,2.0770035,3.085022,3.7599945,3.5650024,8.9290009,2.1350098,12.852005,3.1719971,1.9559937.5170288,4.6360016,3.210022,7.5529938,2.9470215.5410004,5.6290283,6.220993,11.0029907.3410034,15.3170166-.1569977,3.164978,5.3569946,4.2269897,5.6640015,4.6820068.6809998,1.0079956-.2910004,4.7730103,2.6410065,5.6400146l10.0310059-4.5839844,14.1150055,14.677002c.4649963.1010132,8.348999-3.9799805,8.4190063-4.4509888.7720032-5.2609863-3.1029968-3.973999-4.8269958-5.6669922-3.3150024-3.2540283-1.9790039-12.7369995-2.2030029-17.2940063-.1139984-2.3170166-1.6080017-4.197998-.8480072-6.7689819.2030029-.6879883,4.2859955-7.5709839,4.8789978-8.1599731,2.9349976-2.90802,8.7899933-5.2550049,12.9519958-4.5490112l-.0000153-.000061Z" fill="#b3b3b3"/>
  <path id="Logan" d="M115.1568463,557.0311016c-12.8619995.1669922-24.6480026,6.2199707-37.0029984,8.9990234-.2180023,1.1920166.0970001,1.9180298.5419998,2.9569702.7679977,1.7940063,3.310997,8.3779907,3.9499969,9.0499878,1.4639969,1.5410156,5.8700027,1.4169922,6.4430008,3.6259766.3610001,1.3909912-1.0800018,2.9829712-.7939987,4.6569824.314003,1.8339844,2.3349991,3.1149902,1.9250031,6.1229858l-4.9729996,3.0679932c1.0999985,1.0050049,1.3600006,3.552002,2.1180038,4.302002.9570007.9470215,3.1080017.4279785,3.8040009,1.914978.802002,1.7139893,1.4189987,6.8839722,1.026001,8.7000122-4.7669983,1.5170288,1.0469971,3.7600098,2.0179977,5.2609863,1.1060028,1.710022.9580002,4.3540039.9440002,6.3389893,8.2870026-1.5869751,6.9690018,3.2490234,9.9580002,7.3079834.8550034,1.1619873,3.3399963,1.3239746,3.0550003,3.6879883h.9779968c.0899963-3.9849854,3.3949966-2.5540161,6.0699997-3.4420166,1.5859985-.526001,2.7139969-2.4439697,4.473999-2.598999,2.6949997-.2369995,5.3659973,1.1430054,4.4690018,4.0449829,1.8970032.0250244,4.0400009-.8109741,4.1290054-2.8319702l1.3560028-.2119751c2.7160034,2.2280273,5.0099945,1.6040039,7.8159943,2.2310181,1.1929932.2670288,2.621994,1.6400146,3.2120056,1.6060181.576004-.0339966,1.822998-1.9539795,3.2180023-2.5689697,4.2649994-1.882019,8.7380066.8179932,9.2489929-4.8079834.477005-5.2540283-6.3110046-7.0009766-5.9860077-12.4160156,2.8999939-.4790039,5.9960022-.875,8.8220062-1.6859741,4.6529999-1.3359985,7.3760071-2.414978,12.6470032-3.3629761,1.0140076-.1829834,3.371994.7659912,2.5240021-1.4420166-.5370026-1.3959961-4.2980042-6.0880127-5.6170044-6.3629761-6.5019989.882019-9.2830048,7.335022-14.3990021.3770142-1.8370056-2.4990234-2.3399963-3.2180176-4.4029999-5.5980225-5.4880066-6.3319702-.2610016-5.8980103.2680054-8.5460205.0829926-.4140015-1.7570038-7.8670044-2.0220032-8.1950073-.2250061-.2789917-6.0839996-2.8569946-6.5299988-2.9749756-2.3179932-.6140137-4.6869965.0679932-7.3289948-.6710205-3.1520004-.8809814-7.0650024-4.9229736-8.625-5.375-3.1110001-.9000244-7.0999985.3720093-10.3310013-2.6660156-2.8720016-2.7009888,1.7949982-5.7059937,2.9990005-8.4970093l-.0020142.0030518Z" fill="#b3b3b3"/>
  <path id="Raleigh" d="M219.043855,569.1211284c-.9299927-.677002-3.8529968.9299927-5.4060059.9849854-1.7680054.0620117-3.8339996-1.098999-4.848999-.8530273-.8009949.1939697-1.4660034,1.3950195-2.1300049,1.4650269-2.0169983.2119751-8.4400024-4.7750244-10.9880066-4.7810059-4.8540039-.0120239-11.3320007,6.2119751-12.3090057,10.7890015-.8840027,4.1459961,1.0690002,7.5910034.8580017,11.8339844-.1860046,3.7219849-2.5899963,5.7410278,1.4089966,8.4940186,1.2740021.8770142,3.2129974.9619751,4.0370026,1.9589844,1.0749969,1.3010254,1.1999969,5.5430298,1.6089935,5.8959961.4029999.3480225,2.1119995-.0219727,3.0879974.3569946.9850006.382019,1.7319946,1.3660278,2.5440063,1.5770264,2.0350037.5280151,3.0350037-1.9110107,5.121994,1.8129883.7830048,1.3959961.8619995,3.2609863,1.6750031,4.3649902.5579987.757019,1.8480072.789978,2.4989929,1.6890259,2.401001,3.3129883,18.9819946,35.5980225,19.0010071,37.8200073.0180054,2.1550293-1.6490021,2.5629883.4100037,4.4910278,3.345993,3.1329956,6.4539948,2.9290161,9.5130005,4.5319824,1.1710052.6140137,1.927002,2.7650146,3.4259949,2.4310303,1.2539978-.2789917,13.8899994-13.8079834,16.6179962-15.5130005,2.193985-1.0819702,3.3570099,1.2589722,5.503006-.367981,4.4200134-3.348999,2.5880127-4.5930176,3.6499939-8.4110107.644989-2.3179932,10.4119873-7.7260132,12.5310059-9.9680176,1.5750122-1.6669922,2.5679932-5.848999,4.9729919-6.5620117,2.6789856-.7949829,7.0390015,1.0780029,9.7269897,1.9639893l3.5969849,4.8939819c-1.1130066-5.072998-2.0799866-8.9039917-6.9029846-11.4790039,1.0079956-1.0130005,1.1900024-2.9130249,1.8569946-3.8359985.8959961-1.2410278,3.4729919-1.190979,3.0480042-3.1719971-.2799988-1.3060303-3.4779968-2.1619873-4.0629883-3.1640015-.8070068-1.3829956-.5190125-3.5050049-1.9339905-4.8469849-.8469849-.8029785-6.2380066-3.2680054-7.5350037-3.4589844-4.0910034-.6010132-8.1809998,1.3259888-12.4389954-.0650024l-.0289917-4.9699707c-11.0220032,3.2540283-6.4599915-2.5230103-7.4419861-4.0189819-1.2340088-1.8800049-9.2510071-.7369995-12.0740051-.9650269-1.4799957-.1190186-2.7689972-.8120117-4.0590057-.940979-3.9700012-.3980103-16.9730072-.3469849-18.253006-4.7470093-.7669983-2.6370239.4900055-6.2919922-.302002-8.697998-.4380035-1.3309937-3.1900024-2.2719727-4.4420013-3.5809937-.8849945-.9240112-1.3820038-2.8439941-1.5379944-2.9569702l.0000153.0009155Z" fill="#b3b3b3"/>
  <path id="Mingo" d="M80.3558514,580.8251079c-1.6569977-1.6459961-2.7050018-11.7540283-5.8399963-12.7160034-2.7160034-.8330078-15.2740021,4.0269775-17.8700027,5.9039917-1.4059982,1.0159912-13.5999985,13.1380005-14.0410004,14.026001-.7830009,1.5780029.7729988,6.0269775-.526001,8.3599854l8.512001,7.6929932c1.2270012,2.5150146,4.3660011,4.5219727,4.4550018,7.4089966.1619987,5.2960205,1.3120003,5.5219727,2.6689987,10.4719849.4570007,1.6660156.3569984,3.257019.5709991,4.9240112,2.7980003-.0750122,4.875,3.4780273,6.560997,3.960022,1.3310013.3800049,3.3310013-.1929932,4.1429977.34198.5169983.3410034,3.6839981,5.5960083,3.1740036,6.822998,1.8170013.0830078,1.1669998-2.71698,2.2089996-3.7769775.8259964-.8410034,3.4649963-1.7819824,4.3190002-.2529907,1.0699997,1.7329712.0329971,4.3889771.6289978,6.3699951.3190002,1.0620117,1.6640015,1.7340088,2.2979965,2.7470093.5339966.8530273.3570023,2.5059814.6719971,2.78302,1.3010025,1.1459961,8.7929993-.914978,2.8680038,7.1270142,3.2709961.2410278,8.4960022-.9019775,11.0039978,1.5380249.8290024.8060303.7919998,2.0120239,1.1009979,2.3829956.1100006.132019,1.9020004-1.0009766,3.1809998-.789978,1.3479996.2230225,2.6259995,1.9320068,4.2279968,1.8889771,1.8499985-.0490112,3.6029968-3.3040161,7.8570023-1.8809814,1.3410034.4489746,3.4700012,5.1430054,5.6169968,6.4169922l12.7539978-6.8129883c2.125-1.9279785,9.3930054-19.9580078,8.1959991-21.6760254-2.5879974-.6040039-7.0189972-1.8200073-9.4819946-1.6519775-1.8560028.1270142-3.5930023,2.2390137-6.9079971,1.6480103-1.8519974-6.927002-3.8690033-3.0679932-7.8529968-.8359985-1.0920029.6119995-2.8860016.4890137-3.4970016.96698-1.5,1.1710205.3050003,5.2930298-5.1640015,3.7940063.8430023-3.9920044-1.9029999-4.6669922-3.4929962-7.0239868-1.197998-1.776001-2.0049973-5.1790161-4.2089996-5.7910156-1.6669998-.4630127-4.0429993.2789917-5.3949966-.6049805-1.5999985-1.0440063-.4420013-4.4959717-1.4309998-6.5670166-.9290009-1.9459839-4.086998-2.7390137-4.3600006-3.132019-1.3690033-1.9650269,1.6149979-5.3720093,1.8649979-7.4169922.625-5.1270142-2.8690033-4.2310181-4.4810028-6.4780273-.2590027-.3619995-2.3420029-5.2609863-2.4059982-5.6439819-.4100037-2.4439697,4.5930023-3.5560303,4.7040024-4.789978-2.1910019-2.6019897-.961998-5.0189819-1.1200027-7.0700073-.1409988-1.8189697-4.435997-1.5999756-5.5090027-2.6660156l-.0019913.0019531Z" fill="#b3b3b3"/>
  <path id="Summers" d="M267.3198559,640.181126c-.5620117.8309937.0759888,3.4849854-.3619995,5.1439819-.3909912,1.4819946-3.6690063,4.6699829-3.6789856,5.2039795l36.3779907,31.4849854c2.4490051-3.8300171,5.1229858-7.6890259,7.3389893-11.6489868,7.0369873-12.5759888,14.2340088-25.1729736,20.9750061-38.0250244,1.1459961-2.184021,4.4570007-6.1550293,5.0119934-8.0269775.8280029-2.7919922-1.3410034-6.5490112-1.0130005-9.6019897-5.2590027-4.848999-9.7449951-11.4069824-14.7929993-16.2069702-1.5610046-1.4849854-6.5889893-5.6799927-8.3080139-5.3540039-4.6789856.8880005-12.8540039,7.6989746-18.7170105,7.882019.0320129,6.9829712,12.0629883,10.4689941,1.9960022,15.5-.0549927,1.9869995,2.4599915,2.8380127,3.4570007,4.5440063.8519897,1.4589844,1.1879883,3.5200195,1.7919922,5.2039795.3190002.8889771,1.4700012,1.6740112,1.6359863,2.4210205.1400146.6290283-2.3129883,4.492981-2.8340149,4.8690186-4.1570129,2.9949951-4.553009-5.0869751-6.0140076-6.072998-.8670044-.585022-6.3139954-1.7139893-7.3880005-1.3870239-1.6109924.4910278-2.427002,4.3070068-4.1220093,5.9359741-1.9289856,1.8540039-10.2690125,6.5300293-11.3559875,8.1370239l.0010681-.0020142Z" fill="#b3b3b3"/>
  <path id="Wyoming" d="M200.0808423,610.1021465c-.3079987-.3150024-2.904007.0930176-4.1990051-.2860107-1.0399933-.3040161-1.7910004-1.5510254-3.2480011-1.8010254-6.0879974-1.0440063-9.2599945,5.401001-12.9449921,5.0739746-2.3580017-.2089844-3.0220032-2.8070068-4.5279999-3.5910034-4.1000061-2.1339722-18.8999939,4.4359741-24,4.5300293-.2899933,3.1370239,4.0549927,4.1329956,4.8209991,6.6660156,3.8009949,12.5640259-11.2339935,9.0679932-13.3359985,13.3179932-.727005,1.4689941-.3630066,3.3989868-.9669952,5.03302-1.4940033,4.0440063-3.1380005,8.2379761-4.7639923,12.2349854-.5939941,1.4609985-2.4450073,3.0650024-2.6329956,4.4060059-.1829987,1.3040161,1.5370026,2.4240112,2.1100006,3.6370239.522995,1.1060181.5039978,2.9039917.9730072,3.4940186.2200012.2769775,6.0209961,2.9390259,6.4279938,2.9799805,1.3760071.1409912,2.9940033-1.0570068,4.8280029-.8220215,1.5809937.2020264,2.4940033,1.9279785,4.0700073,2.0969849,4.3699951.4699707,8.8170013-5.6160278,12.7680054-4.9019775,1.0879974.1970215,2.0330048,1.4160156,3.1600037,1.4569702,1.1179962.039978,2.4429932-.96698,3.9219971-.5479736,1.6170044.4580078,1.5269928,3.1749878,2.5559998,4.507019,1.852005,2.3989868,5.5820007,1.059021,8.3659973,1.6350098,2.0549927.4249878,4.0590057,2.6820068,6.2480011,2.8140259,2.1529999.1300049,3.7740021-1.4569702,6.7279968-.8400269,4.7489929.9920044,5.5670013,5.2059937,7.3970032,5.723999,1.9799957.5609741,3.3540039-.7650146,4.9259949-.875,3.5169983-.2459717,4.6490021,2.4660034,7.0529938,3.8250122,3.3800049,1.9099731,7.1329956,2.9450073,10.3390045,5.1560059.378006-1.7739868-1.1799927-2.2960205-1.7359924-3.757019-2.2120056-5.809021.7400055-5.1090088,4.1799927-8.3040161.7440033-.690979,1.0809937-2.1170044,2.022995-2.9780273,1.6119995-1.4730225,4.128006-1.6329956,5.5269928-3.4609985-1.7590027-2.8309937-4.7400055-2.2470093-7.3619995-3.6259766-.7059937-.3709717-5.9559937-4.4780273-6.1490021-4.8510132-1.0500031-2.0269775-.1649933-5.3200073-.9340057-8.065979-1.5679932-5.5949707-13.0590057-25.2440186-16.6940002-31.3060303-1.1049957-1.84198-3.0410004-2.9069824-4.0850067-4.9320068-.5800018-1.1240234-.6289978-3.4290161-.8390045-3.6439819l-.0039978.0020142Z" fill="#b3b3b3"/>
  <path id="Monroe" d="M399.3838513,639.7981304c-1.2929993-1.2910156-2.5320129-7.2369995-4.1830139-8.3369751-.6270142-.4180298-2.6459961.8010254-4.3210144.4429932-1.17099-.2509766-2.2319946-1.5280151-3.3529968-1.6610107-3.6040039-.4290161-5.8129883,3.2399902-8.9110107-3.21698-1.368988-.3189697-4.598999,3.585022-6.973999,3.9849854-3.2330017.5449829-7.5230103-.2639771-10.92099-.0490112l-24.553009-7.940979-32.9639893,60.4169922c2.1029968,1.5430298,3.9760132,3.4299927,5.9930115,5.0479736,1.1369934.9119873,2.8590088,1.1459961,3.927002,2.072998,1.4379883,1.2479858,1.95401,4.4639893,4.3359985,4.3060303,2.572998-.1710205,15.0429993-7.1589966,18.0390015-8.9959717,6.4760132-3.9689941,15.4549866-13.2509766,23.1640015-12.9309692,6.7030029.2780151,4.6600037,12.0289917,6.9890137,12.072998l22.9720154-15.0170288c3.3959961-4.3049927,1.3460083-6.9749756,2.071991-8.9920044.302002-.8389893,3.4869995-7.2990112,3.973999-7.9609985,2.3519897-3.1959839,9.7730103-5.9219971,12.4819946-9.5180054.2139893-.4829712-7.0740051-3.0289917-7.769989-3.723999l.0019836-.0010376Z" fill="#b3b3b3"/>
  <path id="Mercer" d="M300.1558545,703.0141338c1.1350098-.9160156-4.8340149-6.2160034-5.052002-8.5319824-.2399902-2.5349731,3.2330017-5.473999,3.9530029-8.1220093l-.3280029-1.3599854c-7.9400024-6.7540283-16.1090088-13.2529907-24.0650024-19.9810181-3.2909851-2.78302-14.2799988-14.5759888-17.8789978-13.8400269-.4859924.098999-6.6069946,5.3920288-7.6519928,6.322998-3.5429993,3.15802-6.5039978,7.8729858-9.4429932,10.5570068-1.798996,1.6430054-4.9400024,2.0750122-6.5099945,3.4860229-2.2149963,1.9910278-1.2380066,5.5930176-5.9689941,5.5380249-.4649963,4.0230103,3.1750031,6.4530029,1.9429932,10.9420166l-4.5509949-.723999-8.3390045,16.09198c6.1069946,7.5780029,13.427002,14.309021,21.4149933,19.684021,2.9100037.2789917,4.5370026-2.2319946,6.7779999-3.2520142,9.8650055-4.4910278,15.5919952-5.2340088,25.9839935-7.0170288,2.0490112-.3519897,3.8540039-1.7750244,6.2380066-1.8519897,2.7520142-.0889893,4.7730103,1.53302,7.7630005.9000244,5.4060059-1.1450195,10.5899963-7.1680298,15.7149963-8.84198l-.0010071-.000061Z" fill="#b3b3b3"/>
  <path id="McDowell" d="M133.1378491,659.0371441c-.776001-.1350098-1.5249939-.0269775-2.2899933.1539917-2.947998.6939697-17.0919952,10.2039795-20.4169998,12.6149902-.4850006.3510132-1.9899979.0200195-1.2679977,1.7109985,1.1389999,2.6640015,6.8399963,3.4429932,8.8700027,6.1329956,4.7430038,6.2819824,1.8690033,7.5410156,1.3130035,13.1420288-.6650009,6.6989746,14.6939926,10.3430176,12.9260025,19.1160278,4.5330048,2.0930176,13.7630005-.625,16.3630066,4.1370239.7299957,1.3369751.9700012,5.3790283,1.6699982,5.8400269.673996.4439697,2.6150055-.085022,4.4169922,1.072998,2.1040039,1.3519897,3.4519958,6.1110229,6.1089935,6.8930054,2.0169983.5939941,7.4340057.3449707,9.8439941.1950073,2.3059998-.1439819,7.7129974-.7509766,9.7949982-1.2059937,1.4100037-.3079834,6.2899933-3.5949707,7.253006-4.7470093,1.2290039-1.4689941,1.5919952-4.072998,2.3849945-4.65802,1.2440033-.9199829,2.5829926.2630005,3.5679932.1749878.7799988-.0700073,2.6690063-1.8239746,4.1959991-2.3709717,1.5780029-.5650024,5.7749939-1.1279907,6.1190033-1.375.5540009-.3980103,3.0410004-7.09198,4.1130066-8.3900146.8509979-1.0310059,2.4839935-1.3950195,3.4900055-2.5100098,1.7830048-1.973999,10.552002-18.934021,9.5650024-19.9320068-4.4120026.5750122-9.4880066-5.9799805-12.4669952-5.9349976-2.5240021.0390015-4.5769958,2.1060181-7.875-.0170288-1.0130005-.6519775-1.098999-2.2869873-2.0820007-3.1019897-3.4669952-2.875-5.8179932-.710022-8.9830017-.9569702-2.6269989-.2050171-5.0720062-2.2930298-7.2960052-2.7960205-3.1889954-.7219849-5.9060059.572998-8.8339996-2.1630249-1.0610046-.9910278-1.8600006-3.6420288-2.9230042-3.7180176-.6779938-.0479736-1.6920013.7150269-2.8190002.526001-1.3939972-.2340088-2.8179932-2.0339966-4.0950012-1.7440186-1.4609985.3319702-5.8350067,4.6640015-10.2120056,4.8980103-2.4429932.1309814-3.7769928-1.651001-5.9420013-1.973999-2.1790009-.3239746-4.4530029.2479858-6.7740021-.2269897-4.3150024-.882019-7.4169922-4.3889771-7.7200012-8.7869873l.0010071.0009766Z" fill="#b3b3b3"/>
</svg>